<?xml version="1.0" encoding="utf-8"?>
<svg xmlns="http://www.w3.org/2000/svg" xmlns:xlink="http://www.w3.org/1999/xlink" width="600" height="400" viewBox="0 0 2400 1600">
<defs>
  <clipPath id="clip170">
    <rect x="0" y="0" width="2400" height="1600"/>
  </clipPath>
</defs>
<path clip-path="url(#clip170)" d="M0 1600 L2400 1600 L2400 0 L0 0  Z" fill="#ffffff" fill-rule="evenodd" fill-opacity="1"/>
<defs>
  <clipPath id="clip171">
    <rect x="480" y="0" width="1681" height="1600"/>
  </clipPath>
</defs>
<path clip-path="url(#clip170)" d="M319.712 1279.64 L2274.02 1279.64 L2274.02 125.984 L319.712 125.984  Z" fill="#ffffff" fill-rule="evenodd" fill-opacity="1"/>
<defs>
  <clipPath id="clip172">
    <rect x="319" y="125" width="1955" height="1155"/>
  </clipPath>
</defs>
<polyline clip-path="url(#clip172)" style="stroke:#000000; stroke-linecap:round; stroke-linejoin:round; stroke-width:2; stroke-opacity:0.1; fill:none" points="375.023,1279.64 375.023,125.984 "/>
<polyline clip-path="url(#clip172)" style="stroke:#000000; stroke-linecap:round; stroke-linejoin:round; stroke-width:2; stroke-opacity:0.1; fill:none" points="835.943,1279.64 835.943,125.984 "/>
<polyline clip-path="url(#clip172)" style="stroke:#000000; stroke-linecap:round; stroke-linejoin:round; stroke-width:2; stroke-opacity:0.1; fill:none" points="1296.86,1279.64 1296.86,125.984 "/>
<polyline clip-path="url(#clip172)" style="stroke:#000000; stroke-linecap:round; stroke-linejoin:round; stroke-width:2; stroke-opacity:0.1; fill:none" points="1757.78,1279.64 1757.78,125.984 "/>
<polyline clip-path="url(#clip172)" style="stroke:#000000; stroke-linecap:round; stroke-linejoin:round; stroke-width:2; stroke-opacity:0.1; fill:none" points="2218.71,1279.64 2218.71,125.984 "/>
<polyline clip-path="url(#clip172)" style="stroke:#000000; stroke-linecap:round; stroke-linejoin:round; stroke-width:2; stroke-opacity:0.1; fill:none" points="319.712,1128.67 2274.02,1128.67 "/>
<polyline clip-path="url(#clip172)" style="stroke:#000000; stroke-linecap:round; stroke-linejoin:round; stroke-width:2; stroke-opacity:0.1; fill:none" points="319.712,886.161 2274.02,886.161 "/>
<polyline clip-path="url(#clip172)" style="stroke:#000000; stroke-linecap:round; stroke-linejoin:round; stroke-width:2; stroke-opacity:0.1; fill:none" points="319.712,643.652 2274.02,643.652 "/>
<polyline clip-path="url(#clip172)" style="stroke:#000000; stroke-linecap:round; stroke-linejoin:round; stroke-width:2; stroke-opacity:0.1; fill:none" points="319.712,401.144 2274.02,401.144 "/>
<polyline clip-path="url(#clip172)" style="stroke:#000000; stroke-linecap:round; stroke-linejoin:round; stroke-width:2; stroke-opacity:0.1; fill:none" points="319.712,158.635 2274.02,158.635 "/>
<polyline clip-path="url(#clip170)" style="stroke:#000000; stroke-linecap:round; stroke-linejoin:round; stroke-width:4; stroke-opacity:1; fill:none" points="319.712,1279.64 2274.02,1279.64 "/>
<polyline clip-path="url(#clip170)" style="stroke:#000000; stroke-linecap:round; stroke-linejoin:round; stroke-width:4; stroke-opacity:1; fill:none" points="375.023,1279.64 375.023,1260.74 "/>
<polyline clip-path="url(#clip170)" style="stroke:#000000; stroke-linecap:round; stroke-linejoin:round; stroke-width:4; stroke-opacity:1; fill:none" points="835.943,1279.64 835.943,1260.74 "/>
<polyline clip-path="url(#clip170)" style="stroke:#000000; stroke-linecap:round; stroke-linejoin:round; stroke-width:4; stroke-opacity:1; fill:none" points="1296.86,1279.64 1296.86,1260.74 "/>
<polyline clip-path="url(#clip170)" style="stroke:#000000; stroke-linecap:round; stroke-linejoin:round; stroke-width:4; stroke-opacity:1; fill:none" points="1757.78,1279.64 1757.78,1260.74 "/>
<polyline clip-path="url(#clip170)" style="stroke:#000000; stroke-linecap:round; stroke-linejoin:round; stroke-width:4; stroke-opacity:1; fill:none" points="2218.71,1279.64 2218.71,1260.74 "/>
<path clip-path="url(#clip170)" d="M375.023 1322.28 Q367.801 1322.28 364.143 1329.41 Q360.532 1336.49 360.532 1350.75 Q360.532 1364.96 364.143 1372.09 Q367.801 1379.17 375.023 1379.17 Q382.291 1379.17 385.902 1372.09 Q389.56 1364.96 389.56 1350.75 Q389.56 1336.49 385.902 1329.41 Q382.291 1322.28 375.023 1322.28 M375.023 1314.87 Q386.643 1314.87 392.754 1324.08 Q398.912 1333.25 398.912 1350.75 Q398.912 1368.2 392.754 1377.42 Q386.643 1386.58 375.023 1386.58 Q363.403 1386.58 357.245 1377.42 Q351.134 1368.2 351.134 1350.75 Q351.134 1333.25 357.245 1324.08 Q363.403 1314.87 375.023 1314.87 Z" fill="#000000" fill-rule="nonzero" fill-opacity="1" /><path clip-path="url(#clip170)" d="M785.319 1377.37 L800.596 1377.37 L800.596 1324.64 L783.976 1327.97 L783.976 1319.45 L800.504 1316.12 L809.856 1316.12 L809.856 1377.37 L825.133 1377.37 L825.133 1385.24 L785.319 1385.24 L785.319 1377.37 Z" fill="#000000" fill-rule="nonzero" fill-opacity="1" /><path clip-path="url(#clip170)" d="M864.022 1322.28 Q856.8 1322.28 853.142 1329.41 Q849.531 1336.49 849.531 1350.75 Q849.531 1364.96 853.142 1372.09 Q856.8 1379.17 864.022 1379.17 Q871.29 1379.17 874.902 1372.09 Q878.559 1364.96 878.559 1350.75 Q878.559 1336.49 874.902 1329.41 Q871.29 1322.28 864.022 1322.28 M864.022 1314.87 Q875.642 1314.87 881.753 1324.08 Q887.911 1333.25 887.911 1350.75 Q887.911 1368.2 881.753 1377.42 Q875.642 1386.58 864.022 1386.58 Q852.402 1386.58 846.244 1377.42 Q840.133 1368.2 840.133 1350.75 Q840.133 1333.25 846.244 1324.08 Q852.402 1314.87 864.022 1314.87 Z" fill="#000000" fill-rule="nonzero" fill-opacity="1" /><path clip-path="url(#clip170)" d="M1254.41 1377.37 L1287.05 1377.37 L1287.05 1385.24 L1243.16 1385.24 L1243.16 1377.37 Q1248.48 1371.86 1257.65 1362.6 Q1266.86 1353.3 1269.23 1350.61 Q1273.72 1345.56 1275.48 1342.09 Q1277.28 1338.57 1277.28 1335.19 Q1277.28 1329.68 1273.39 1326.21 Q1269.55 1322.74 1263.35 1322.74 Q1258.95 1322.74 1254.04 1324.27 Q1249.18 1325.8 1243.62 1328.9 L1243.62 1319.45 Q1249.27 1317.18 1254.18 1316.03 Q1259.09 1314.87 1263.16 1314.87 Q1273.9 1314.87 1280.29 1320.24 Q1286.68 1325.61 1286.68 1334.59 Q1286.68 1338.85 1285.06 1342.69 Q1283.48 1346.49 1279.27 1351.68 Q1278.11 1353.02 1271.91 1359.45 Q1265.71 1365.84 1254.41 1377.37 Z" fill="#000000" fill-rule="nonzero" fill-opacity="1" /><path clip-path="url(#clip170)" d="M1326.68 1322.28 Q1319.46 1322.28 1315.8 1329.41 Q1312.19 1336.49 1312.19 1350.75 Q1312.19 1364.96 1315.8 1372.09 Q1319.46 1379.17 1326.68 1379.17 Q1333.95 1379.17 1337.56 1372.09 Q1341.22 1364.96 1341.22 1350.75 Q1341.22 1336.49 1337.56 1329.41 Q1333.95 1322.28 1326.68 1322.28 M1326.68 1314.87 Q1338.3 1314.87 1344.41 1324.08 Q1350.57 1333.25 1350.57 1350.75 Q1350.57 1368.2 1344.41 1377.42 Q1338.3 1386.58 1326.68 1386.58 Q1315.06 1386.58 1308.9 1377.42 Q1302.79 1368.2 1302.79 1350.75 Q1302.79 1333.25 1308.9 1324.08 Q1315.06 1314.87 1326.68 1314.87 Z" fill="#000000" fill-rule="nonzero" fill-opacity="1" /><path clip-path="url(#clip170)" d="M1735.47 1347.97 Q1742.18 1349.41 1745.93 1353.94 Q1749.73 1358.48 1749.73 1365.15 Q1749.73 1375.38 1742.69 1380.98 Q1735.66 1386.58 1722.69 1386.58 Q1718.34 1386.58 1713.71 1385.7 Q1709.13 1384.87 1704.22 1383.16 L1704.22 1374.13 Q1708.11 1376.4 1712.74 1377.55 Q1717.37 1378.71 1722.41 1378.71 Q1731.21 1378.71 1735.79 1375.24 Q1740.42 1371.77 1740.42 1365.15 Q1740.42 1359.04 1736.12 1355.61 Q1731.86 1352.14 1724.22 1352.14 L1716.16 1352.14 L1716.16 1344.45 L1724.59 1344.45 Q1731.49 1344.45 1735.15 1341.72 Q1738.8 1338.94 1738.8 1333.76 Q1738.8 1328.43 1735.01 1325.61 Q1731.26 1322.74 1724.22 1322.74 Q1720.38 1322.74 1715.98 1323.57 Q1711.58 1324.41 1706.3 1326.17 L1706.3 1317.83 Q1711.63 1316.35 1716.26 1315.61 Q1720.93 1314.87 1725.05 1314.87 Q1735.7 1314.87 1741.91 1319.73 Q1748.11 1324.55 1748.11 1332.79 Q1748.11 1338.53 1744.82 1342.51 Q1741.53 1346.44 1735.47 1347.97 Z" fill="#000000" fill-rule="nonzero" fill-opacity="1" /><path clip-path="url(#clip170)" d="M1787.46 1322.28 Q1780.24 1322.28 1776.58 1329.41 Q1772.97 1336.49 1772.97 1350.75 Q1772.97 1364.96 1776.58 1372.09 Q1780.24 1379.17 1787.46 1379.17 Q1794.73 1379.17 1798.34 1372.09 Q1802 1364.96 1802 1350.75 Q1802 1336.49 1798.34 1329.41 Q1794.73 1322.28 1787.46 1322.28 M1787.46 1314.87 Q1799.08 1314.87 1805.19 1324.08 Q1811.35 1333.25 1811.35 1350.75 Q1811.35 1368.2 1805.19 1377.42 Q1799.08 1386.58 1787.46 1386.58 Q1775.84 1386.58 1769.68 1377.42 Q1763.57 1368.2 1763.57 1350.75 Q1763.57 1333.25 1769.68 1324.08 Q1775.84 1314.87 1787.46 1314.87 Z" fill="#000000" fill-rule="nonzero" fill-opacity="1" /><path clip-path="url(#clip170)" d="M2195.05 1324.27 L2171.44 1361.17 L2195.05 1361.17 L2195.05 1324.27 M2192.59 1316.12 L2204.35 1316.12 L2204.35 1361.17 L2214.21 1361.17 L2214.21 1368.94 L2204.35 1368.94 L2204.35 1385.24 L2195.05 1385.24 L2195.05 1368.94 L2163.84 1368.94 L2163.84 1359.92 L2192.59 1316.12 Z" fill="#000000" fill-rule="nonzero" fill-opacity="1" /><path clip-path="url(#clip170)" d="M2249.68 1322.28 Q2242.46 1322.28 2238.8 1329.41 Q2235.19 1336.49 2235.19 1350.75 Q2235.19 1364.96 2238.8 1372.09 Q2242.46 1379.17 2249.68 1379.17 Q2256.95 1379.17 2260.56 1372.09 Q2264.21 1364.96 2264.21 1350.75 Q2264.21 1336.49 2260.56 1329.41 Q2256.95 1322.28 2249.68 1322.28 M2249.68 1314.87 Q2261.3 1314.87 2267.41 1324.08 Q2273.57 1333.25 2273.57 1350.75 Q2273.57 1368.2 2267.41 1377.42 Q2261.3 1386.58 2249.68 1386.58 Q2238.06 1386.58 2231.9 1377.42 Q2225.79 1368.2 2225.79 1350.75 Q2225.79 1333.25 2231.9 1324.08 Q2238.06 1314.87 2249.68 1314.87 Z" fill="#000000" fill-rule="nonzero" fill-opacity="1" /><path clip-path="url(#clip170)" d="M1210.69 1434.87 L1221.21 1434.87 L1221.21 1503.78 L1259.08 1503.78 L1259.08 1512.63 L1210.69 1512.63 L1210.69 1434.87 Z" fill="#000000" fill-rule="nonzero" fill-opacity="1" /><path clip-path="url(#clip170)" d="M1296.21 1483.31 Q1284.6 1483.31 1280.12 1485.97 Q1275.64 1488.62 1275.64 1495.03 Q1275.64 1500.13 1278.97 1503.15 Q1282.36 1506.12 1288.14 1506.12 Q1296.11 1506.12 1300.9 1500.5 Q1305.74 1494.82 1305.74 1485.44 L1305.74 1483.31 L1296.21 1483.31 M1315.33 1479.35 L1315.33 1512.63 L1305.74 1512.63 L1305.74 1503.78 Q1302.46 1509.09 1297.57 1511.64 Q1292.67 1514.14 1285.59 1514.14 Q1276.63 1514.14 1271.32 1509.14 Q1266.06 1504.09 1266.06 1495.65 Q1266.06 1485.81 1272.62 1480.81 Q1279.23 1475.81 1292.31 1475.81 L1305.74 1475.81 L1305.74 1474.87 Q1305.74 1468.26 1301.37 1464.66 Q1297.05 1461.02 1289.18 1461.02 Q1284.18 1461.02 1279.44 1462.22 Q1274.7 1463.41 1270.33 1465.81 L1270.33 1456.95 Q1275.59 1454.92 1280.54 1453.93 Q1285.48 1452.89 1290.17 1452.89 Q1302.83 1452.89 1309.08 1459.45 Q1315.33 1466.02 1315.33 1479.35 Z" fill="#000000" fill-rule="nonzero" fill-opacity="1" /><path clip-path="url(#clip170)" d="M1373.45 1482.79 Q1373.45 1472.37 1369.13 1466.64 Q1364.86 1460.91 1357.1 1460.91 Q1349.39 1460.91 1345.07 1466.64 Q1340.8 1472.37 1340.8 1482.79 Q1340.8 1493.15 1345.07 1498.88 Q1349.39 1504.61 1357.1 1504.61 Q1364.86 1504.61 1369.13 1498.88 Q1373.45 1493.15 1373.45 1482.79 M1383.04 1505.39 Q1383.04 1520.29 1376.42 1527.53 Q1369.81 1534.82 1356.16 1534.82 Q1351.11 1534.82 1346.63 1534.04 Q1342.15 1533.31 1337.93 1531.75 L1337.93 1522.42 Q1342.15 1524.71 1346.26 1525.81 Q1350.38 1526.9 1354.65 1526.9 Q1364.08 1526.9 1368.76 1521.95 Q1373.45 1517.06 1373.45 1507.11 L1373.45 1502.37 Q1370.48 1507.53 1365.85 1510.08 Q1361.21 1512.63 1354.75 1512.63 Q1344.03 1512.63 1337.46 1504.45 Q1330.9 1496.28 1330.9 1482.79 Q1330.9 1469.25 1337.46 1461.07 Q1344.03 1452.89 1354.75 1452.89 Q1361.21 1452.89 1365.85 1455.44 Q1370.48 1458 1373.45 1463.15 L1373.45 1454.3 L1383.04 1454.3 L1383.04 1505.39 Z" fill="#000000" fill-rule="nonzero" fill-opacity="1" /><polyline clip-path="url(#clip170)" style="stroke:#000000; stroke-linecap:round; stroke-linejoin:round; stroke-width:4; stroke-opacity:1; fill:none" points="319.712,1279.64 319.712,125.984 "/>
<polyline clip-path="url(#clip170)" style="stroke:#000000; stroke-linecap:round; stroke-linejoin:round; stroke-width:4; stroke-opacity:1; fill:none" points="319.712,1128.67 338.61,1128.67 "/>
<polyline clip-path="url(#clip170)" style="stroke:#000000; stroke-linecap:round; stroke-linejoin:round; stroke-width:4; stroke-opacity:1; fill:none" points="319.712,886.161 338.61,886.161 "/>
<polyline clip-path="url(#clip170)" style="stroke:#000000; stroke-linecap:round; stroke-linejoin:round; stroke-width:4; stroke-opacity:1; fill:none" points="319.712,643.652 338.61,643.652 "/>
<polyline clip-path="url(#clip170)" style="stroke:#000000; stroke-linecap:round; stroke-linejoin:round; stroke-width:4; stroke-opacity:1; fill:none" points="319.712,401.144 338.61,401.144 "/>
<polyline clip-path="url(#clip170)" style="stroke:#000000; stroke-linecap:round; stroke-linejoin:round; stroke-width:4; stroke-opacity:1; fill:none" points="319.712,158.635 338.61,158.635 "/>
<path clip-path="url(#clip170)" d="M172.556 1100.27 Q165.333 1100.27 161.676 1107.4 Q158.065 1114.48 158.065 1128.74 Q158.065 1142.95 161.676 1150.08 Q165.333 1157.17 172.556 1157.17 Q179.824 1157.17 183.435 1150.08 Q187.093 1142.95 187.093 1128.74 Q187.093 1114.48 183.435 1107.4 Q179.824 1100.27 172.556 1100.27 M172.556 1092.86 Q184.176 1092.86 190.287 1102.07 Q196.444 1111.24 196.444 1128.74 Q196.444 1146.19 190.287 1155.41 Q184.176 1164.57 172.556 1164.57 Q160.935 1164.57 154.778 1155.41 Q148.667 1146.19 148.667 1128.74 Q148.667 1111.24 154.778 1102.07 Q160.935 1092.86 172.556 1092.86 Z" fill="#000000" fill-rule="nonzero" fill-opacity="1" /><path clip-path="url(#clip170)" d="M212.879 1151.47 L222.648 1151.47 L222.648 1163.23 L212.879 1163.23 L212.879 1151.47 Z" fill="#000000" fill-rule="nonzero" fill-opacity="1" /><path clip-path="url(#clip170)" d="M251.074 1155.36 L283.712 1155.36 L283.712 1163.23 L239.824 1163.23 L239.824 1155.36 Q245.148 1149.85 254.314 1140.59 Q263.527 1131.29 265.888 1128.6 Q270.379 1123.55 272.138 1120.08 Q273.944 1116.56 273.944 1113.18 Q273.944 1107.67 270.055 1104.2 Q266.212 1100.73 260.009 1100.73 Q255.611 1100.73 250.703 1102.26 Q245.842 1103.79 240.287 1106.89 L240.287 1097.44 Q245.935 1095.17 250.842 1094.02 Q255.75 1092.86 259.824 1092.86 Q270.564 1092.86 276.953 1098.23 Q283.342 1103.6 283.342 1112.58 Q283.342 1116.84 281.722 1120.68 Q280.148 1124.48 275.935 1129.67 Q274.777 1131.01 268.574 1137.44 Q262.37 1143.83 251.074 1155.36 Z" fill="#000000" fill-rule="nonzero" fill-opacity="1" /><path clip-path="url(#clip170)" d="M168.389 857.759 Q161.167 857.759 157.509 864.888 Q153.898 871.972 153.898 886.231 Q153.898 900.444 157.509 907.573 Q161.167 914.656 168.389 914.656 Q175.657 914.656 179.268 907.573 Q182.926 900.444 182.926 886.231 Q182.926 871.972 179.268 864.888 Q175.657 857.759 168.389 857.759 M168.389 850.351 Q180.009 850.351 186.12 859.564 Q192.278 868.731 192.278 886.231 Q192.278 903.684 186.12 912.897 Q180.009 922.064 168.389 922.064 Q156.769 922.064 150.611 912.897 Q144.5 903.684 144.5 886.231 Q144.5 868.731 150.611 859.564 Q156.769 850.351 168.389 850.351 Z" fill="#000000" fill-rule="nonzero" fill-opacity="1" /><path clip-path="url(#clip170)" d="M208.713 908.962 L218.481 908.962 L218.481 920.721 L208.713 920.721 L208.713 908.962 Z" fill="#000000" fill-rule="nonzero" fill-opacity="1" /><path clip-path="url(#clip170)" d="M264.546 859.749 L240.935 896.647 L264.546 896.647 L264.546 859.749 M262.092 851.601 L273.851 851.601 L273.851 896.647 L283.712 896.647 L283.712 904.425 L273.851 904.425 L273.851 920.721 L264.546 920.721 L264.546 904.425 L233.342 904.425 L233.342 895.397 L262.092 851.601 Z" fill="#000000" fill-rule="nonzero" fill-opacity="1" /><path clip-path="url(#clip170)" d="M169.037 615.25 Q161.815 615.25 158.157 622.379 Q154.546 629.463 154.546 643.722 Q154.546 657.935 158.157 665.064 Q161.815 672.148 169.037 672.148 Q176.306 672.148 179.917 665.064 Q183.574 657.935 183.574 643.722 Q183.574 629.463 179.917 622.379 Q176.306 615.25 169.037 615.25 M169.037 607.842 Q180.657 607.842 186.768 617.055 Q192.926 626.222 192.926 643.722 Q192.926 661.176 186.768 670.388 Q180.657 679.555 169.037 679.555 Q157.417 679.555 151.259 670.388 Q145.148 661.176 145.148 643.722 Q145.148 626.222 151.259 617.055 Q157.417 607.842 169.037 607.842 Z" fill="#000000" fill-rule="nonzero" fill-opacity="1" /><path clip-path="url(#clip170)" d="M209.361 666.453 L219.129 666.453 L219.129 678.212 L209.361 678.212 L209.361 666.453 Z" fill="#000000" fill-rule="nonzero" fill-opacity="1" /><path clip-path="url(#clip170)" d="M260.657 639.926 Q254.361 639.926 250.657 644.231 Q247 648.537 247 656.037 Q247 663.49 250.657 667.842 Q254.361 672.148 260.657 672.148 Q266.953 672.148 270.611 667.842 Q274.314 663.49 274.314 656.037 Q274.314 648.537 270.611 644.231 Q266.953 639.926 260.657 639.926 M279.222 610.62 L279.222 619.139 Q275.703 617.472 272.092 616.592 Q268.527 615.713 265.009 615.713 Q255.75 615.713 250.842 621.963 Q245.981 628.213 245.287 640.852 Q248.018 636.824 252.138 634.694 Q256.259 632.518 261.212 632.518 Q271.629 632.518 277.648 638.861 Q283.712 645.157 283.712 656.037 Q283.712 666.685 277.416 673.12 Q271.12 679.555 260.657 679.555 Q248.666 679.555 242.324 670.388 Q235.981 661.176 235.981 643.722 Q235.981 627.333 243.759 617.611 Q251.537 607.842 264.638 607.842 Q268.157 607.842 271.722 608.537 Q275.333 609.231 279.222 610.62 Z" fill="#000000" fill-rule="nonzero" fill-opacity="1" /><path clip-path="url(#clip170)" d="M169.546 372.741 Q162.324 372.741 158.667 379.871 Q155.056 386.954 155.056 401.213 Q155.056 415.426 158.667 422.556 Q162.324 429.639 169.546 429.639 Q176.815 429.639 180.426 422.556 Q184.083 415.426 184.083 401.213 Q184.083 386.954 180.426 379.871 Q176.815 372.741 169.546 372.741 M169.546 365.334 Q181.167 365.334 187.278 374.547 Q193.435 383.713 193.435 401.213 Q193.435 418.667 187.278 427.88 Q181.167 437.046 169.546 437.046 Q157.926 437.046 151.769 427.88 Q145.658 418.667 145.658 401.213 Q145.658 383.713 151.769 374.547 Q157.926 365.334 169.546 365.334 Z" fill="#000000" fill-rule="nonzero" fill-opacity="1" /><path clip-path="url(#clip170)" d="M209.87 423.944 L219.639 423.944 L219.639 435.704 L209.87 435.704 L209.87 423.944 Z" fill="#000000" fill-rule="nonzero" fill-opacity="1" /><path clip-path="url(#clip170)" d="M260.009 402.88 Q253.342 402.88 249.5 406.445 Q245.703 410.009 245.703 416.259 Q245.703 422.509 249.5 426.074 Q253.342 429.639 260.009 429.639 Q266.675 429.639 270.518 426.074 Q274.361 422.463 274.361 416.259 Q274.361 410.009 270.518 406.445 Q266.722 402.88 260.009 402.88 M250.657 398.898 Q244.639 397.417 241.259 393.296 Q237.926 389.176 237.926 383.25 Q237.926 374.963 243.805 370.148 Q249.731 365.334 260.009 365.334 Q270.333 365.334 276.212 370.148 Q282.092 374.963 282.092 383.25 Q282.092 389.176 278.712 393.296 Q275.379 397.417 269.407 398.898 Q276.166 400.472 279.916 405.056 Q283.712 409.639 283.712 416.259 Q283.712 426.306 277.555 431.676 Q271.444 437.046 260.009 437.046 Q248.574 437.046 242.416 431.676 Q236.305 426.306 236.305 416.259 Q236.305 409.639 240.101 405.056 Q243.898 400.472 250.657 398.898 M247.231 384.13 Q247.231 389.5 250.564 392.509 Q253.944 395.519 260.009 395.519 Q266.027 395.519 269.407 392.509 Q272.833 389.5 272.833 384.13 Q272.833 378.76 269.407 375.75 Q266.027 372.741 260.009 372.741 Q253.944 372.741 250.564 375.75 Q247.231 378.76 247.231 384.13 Z" fill="#000000" fill-rule="nonzero" fill-opacity="1" /><path clip-path="url(#clip170)" d="M150.982 185.325 L166.259 185.325 L166.259 132.593 L149.639 135.927 L149.639 127.408 L166.167 124.075 L175.519 124.075 L175.519 185.325 L190.796 185.325 L190.796 193.195 L150.982 193.195 L150.982 185.325 Z" fill="#000000" fill-rule="nonzero" fill-opacity="1" /><path clip-path="url(#clip170)" d="M209.685 181.436 L219.453 181.436 L219.453 193.195 L209.685 193.195 L209.685 181.436 Z" fill="#000000" fill-rule="nonzero" fill-opacity="1" /><path clip-path="url(#clip170)" d="M259.824 130.232 Q252.601 130.232 248.944 137.362 Q245.333 144.445 245.333 158.704 Q245.333 172.917 248.944 180.047 Q252.601 187.13 259.824 187.13 Q267.092 187.13 270.703 180.047 Q274.361 172.917 274.361 158.704 Q274.361 144.445 270.703 137.362 Q267.092 130.232 259.824 130.232 M259.824 122.825 Q271.444 122.825 277.555 132.038 Q283.712 141.204 283.712 158.704 Q283.712 176.158 277.555 185.371 Q271.444 194.537 259.824 194.537 Q248.203 194.537 242.046 185.371 Q235.935 176.158 235.935 158.704 Q235.935 141.204 242.046 132.038 Q248.203 122.825 259.824 122.825 Z" fill="#000000" fill-rule="nonzero" fill-opacity="1" /><path clip-path="url(#clip170)" d="M17.7767 1072.24 L56.4744 1086.51 L56.4744 1057.91 L17.7767 1072.24 M7.41216 1078.17 L7.41216 1066.25 L85.1722 1036.61 L85.1722 1047.55 L65.2243 1054.63 L65.2243 1089.68 L85.1722 1096.77 L85.1722 1107.86 L7.41216 1078.17 Z" fill="#000000" fill-rule="nonzero" fill-opacity="1" /><path clip-path="url(#clip170)" d="M62.1514 1026.66 L26.8391 1026.66 L26.8391 1017.08 L61.7869 1017.08 Q70.0681 1017.08 74.2347 1013.85 Q78.3493 1010.62 78.3493 1004.16 Q78.3493 996.404 73.4014 991.925 Q68.4535 987.394 59.9119 987.394 L26.8391 987.394 L26.8391 977.81 L85.1722 977.81 L85.1722 987.394 L76.2139 987.394 Q81.5263 990.883 84.1305 995.519 Q86.6826 1000.1 86.6826 1006.2 Q86.6826 1016.25 80.4326 1021.46 Q74.1826 1026.66 62.1514 1026.66 M25.4329 1002.55 L25.4329 1002.55 Z" fill="#000000" fill-rule="nonzero" fill-opacity="1" /><path clip-path="url(#clip170)" d="M10.2767 948.592 L26.8391 948.592 L26.8391 928.852 L34.287 928.852 L34.287 948.592 L65.9535 948.592 Q73.0889 948.592 75.1201 946.665 Q77.1514 944.686 77.1514 938.696 L77.1514 928.852 L85.1722 928.852 L85.1722 938.696 Q85.1722 949.79 81.0576 954.009 Q76.891 958.227 65.9535 958.227 L34.287 958.227 L34.287 965.258 L26.8391 965.258 L26.8391 958.227 L10.2767 958.227 L10.2767 948.592 Z" fill="#000000" fill-rule="nonzero" fill-opacity="1" /><path clip-path="url(#clip170)" d="M33.5579 893.644 Q33.5579 901.353 39.5995 905.832 Q45.589 910.311 56.0577 910.311 Q66.5264 910.311 72.5681 905.884 Q78.5576 901.405 78.5576 893.644 Q78.5576 885.988 72.516 881.509 Q66.4743 877.03 56.0577 877.03 Q45.6932 877.03 39.6516 881.509 Q33.5579 885.988 33.5579 893.644 M25.4329 893.644 Q25.4329 881.144 33.5579 874.009 Q41.6828 866.874 56.0577 866.874 Q70.3806 866.874 78.5576 874.009 Q86.6826 881.144 86.6826 893.644 Q86.6826 906.196 78.5576 913.332 Q70.3806 920.415 56.0577 920.415 Q41.6828 920.415 33.5579 913.332 Q25.4329 906.196 25.4329 893.644 Z" fill="#000000" fill-rule="nonzero" fill-opacity="1" /><path clip-path="url(#clip170)" d="M29.0787 809.009 L38.037 809.009 Q35.7974 813.072 34.7037 817.186 Q33.5579 821.249 33.5579 825.415 Q33.5579 834.738 39.4953 839.895 Q45.3807 845.051 56.0577 845.051 Q66.7348 845.051 72.6722 839.895 Q78.5576 834.738 78.5576 825.415 Q78.5576 821.249 77.4639 817.186 Q76.318 813.072 74.0785 809.009 L82.9326 809.009 Q84.8076 813.02 85.7451 817.343 Q86.6826 821.613 86.6826 826.457 Q86.6826 839.634 78.4014 847.395 Q70.1202 855.155 56.0577 855.155 Q41.787 855.155 33.6099 847.342 Q25.4329 839.478 25.4329 825.832 Q25.4329 821.405 26.3704 817.186 Q27.2558 812.968 29.0787 809.009 Z" fill="#000000" fill-rule="nonzero" fill-opacity="1" /><path clip-path="url(#clip170)" d="M33.5579 769.739 Q33.5579 777.447 39.5995 781.926 Q45.589 786.405 56.0577 786.405 Q66.5264 786.405 72.5681 781.978 Q78.5576 777.499 78.5576 769.739 Q78.5576 762.082 72.516 757.603 Q66.4743 753.124 56.0577 753.124 Q45.6932 753.124 39.6516 757.603 Q33.5579 762.082 33.5579 769.739 M25.4329 769.739 Q25.4329 757.239 33.5579 750.103 Q41.6828 742.968 56.0577 742.968 Q70.3806 742.968 78.5576 750.103 Q86.6826 757.239 86.6826 769.739 Q86.6826 782.291 78.5576 789.426 Q70.3806 796.509 56.0577 796.509 Q41.6828 796.509 33.5579 789.426 Q25.4329 782.291 25.4329 769.739 Z" fill="#000000" fill-rule="nonzero" fill-opacity="1" /><path clip-path="url(#clip170)" d="M35.7974 693.281 Q34.8599 694.895 34.4433 696.822 Q33.9745 698.697 33.9745 700.989 Q33.9745 709.114 39.287 713.489 Q44.5474 717.812 54.4432 717.812 L85.1722 717.812 L85.1722 727.447 L26.8391 727.447 L26.8391 717.812 L35.9016 717.812 Q30.5891 714.791 28.037 709.947 Q25.4329 705.104 25.4329 698.177 Q25.4329 697.187 25.5891 695.989 Q25.6933 694.791 25.9537 693.333 L35.7974 693.281 Z" fill="#000000" fill-rule="nonzero" fill-opacity="1" /><path clip-path="url(#clip170)" d="M35.7974 651.302 Q34.8599 652.916 34.4433 654.843 Q33.9745 656.718 33.9745 659.01 Q33.9745 667.135 39.287 671.51 Q44.5474 675.833 54.4432 675.833 L85.1722 675.833 L85.1722 685.468 L26.8391 685.468 L26.8391 675.833 L35.9016 675.833 Q30.5891 672.812 28.037 667.968 Q25.4329 663.125 25.4329 656.198 Q25.4329 655.208 25.5891 654.01 Q25.6933 652.812 25.9537 651.354 L35.7974 651.302 Z" fill="#000000" fill-rule="nonzero" fill-opacity="1" /><path clip-path="url(#clip170)" d="M53.6098 593.698 L58.2973 593.698 L58.2973 637.76 Q68.1931 637.135 73.4014 631.823 Q78.5576 626.458 78.5576 616.927 Q78.5576 611.406 77.2035 606.25 Q75.8493 601.042 73.141 595.938 L82.2034 595.938 Q84.3909 601.094 85.5367 606.51 Q86.6826 611.927 86.6826 617.5 Q86.6826 631.458 78.5576 639.635 Q70.4327 647.76 56.5786 647.76 Q42.2557 647.76 33.8703 640.052 Q25.4329 632.292 25.4329 619.167 Q25.4329 607.396 33.037 600.573 Q40.5891 593.698 53.6098 593.698 M50.7973 603.281 Q42.9328 603.385 38.2453 607.708 Q33.5579 611.979 33.5579 619.062 Q33.5579 627.083 38.0891 631.927 Q42.6203 636.719 50.8494 637.448 L50.7973 603.281 Z" fill="#000000" fill-rule="nonzero" fill-opacity="1" /><path clip-path="url(#clip170)" d="M4.13093 577.969 L4.13093 568.386 L85.1722 568.386 L85.1722 577.969 L4.13093 577.969 Z" fill="#000000" fill-rule="nonzero" fill-opacity="1" /><path clip-path="url(#clip170)" d="M55.8494 521.823 Q55.8494 533.438 58.5056 537.917 Q61.1619 542.396 67.5681 542.396 Q72.6722 542.396 75.693 539.063 Q78.6618 535.677 78.6618 529.896 Q78.6618 521.928 73.0368 517.136 Q67.3598 512.292 57.9848 512.292 L55.8494 512.292 L55.8494 521.823 M51.8911 502.709 L85.1722 502.709 L85.1722 512.292 L76.318 512.292 Q81.6305 515.573 84.1826 520.469 Q86.6826 525.365 86.6826 532.448 Q86.6826 541.407 81.6826 546.719 Q76.6305 551.979 68.1931 551.979 Q58.3494 551.979 53.3494 545.417 Q48.3494 538.802 48.3494 525.73 L48.3494 512.292 L47.4119 512.292 Q40.7974 512.292 37.2037 516.667 Q33.5579 520.99 33.5579 528.855 Q33.5579 533.855 34.7558 538.594 Q35.9537 543.334 38.3495 547.709 L29.4954 547.709 Q27.4641 542.448 26.4746 537.5 Q25.4329 532.552 25.4329 527.865 Q25.4329 515.209 31.9954 508.959 Q38.5578 502.709 51.8911 502.709 Z" fill="#000000" fill-rule="nonzero" fill-opacity="1" /><path clip-path="url(#clip170)" d="M10.2767 473.49 L26.8391 473.49 L26.8391 453.751 L34.287 453.751 L34.287 473.49 L65.9535 473.49 Q73.0889 473.49 75.1201 471.563 Q77.1514 469.584 77.1514 463.595 L77.1514 453.751 L85.1722 453.751 L85.1722 463.595 Q85.1722 474.688 81.0576 478.907 Q76.891 483.126 65.9535 483.126 L34.287 483.126 L34.287 490.157 L26.8391 490.157 L26.8391 483.126 L10.2767 483.126 L10.2767 473.49 Z" fill="#000000" fill-rule="nonzero" fill-opacity="1" /><path clip-path="url(#clip170)" d="M26.8391 441.147 L26.8391 431.563 L85.1722 431.563 L85.1722 441.147 L26.8391 441.147 M4.13093 441.147 L4.13093 431.563 L16.2663 431.563 L16.2663 441.147 L4.13093 441.147 Z" fill="#000000" fill-rule="nonzero" fill-opacity="1" /><path clip-path="url(#clip170)" d="M33.5579 388.907 Q33.5579 396.616 39.5995 401.095 Q45.589 405.574 56.0577 405.574 Q66.5264 405.574 72.5681 401.147 Q78.5576 396.668 78.5576 388.907 Q78.5576 381.251 72.516 376.772 Q66.4743 372.293 56.0577 372.293 Q45.6932 372.293 39.6516 376.772 Q33.5579 381.251 33.5579 388.907 M25.4329 388.907 Q25.4329 376.407 33.5579 369.272 Q41.6828 362.137 56.0577 362.137 Q70.3806 362.137 78.5576 369.272 Q86.6826 376.407 86.6826 388.907 Q86.6826 401.459 78.5576 408.595 Q70.3806 415.678 56.0577 415.678 Q41.6828 415.678 33.5579 408.595 Q25.4329 401.459 25.4329 388.907 Z" fill="#000000" fill-rule="nonzero" fill-opacity="1" /><path clip-path="url(#clip170)" d="M49.964 297.762 L85.1722 297.762 L85.1722 307.345 L50.2765 307.345 Q41.9953 307.345 37.8807 310.574 Q33.7662 313.804 33.7662 320.262 Q33.7662 328.022 38.7141 332.501 Q43.662 336.981 52.2036 336.981 L85.1722 336.981 L85.1722 346.616 L26.8391 346.616 L26.8391 336.981 L35.9016 336.981 Q30.6412 333.543 28.037 328.908 Q25.4329 324.22 25.4329 318.127 Q25.4329 308.075 31.6829 302.918 Q37.8807 297.762 49.964 297.762 Z" fill="#000000" fill-rule="nonzero" fill-opacity="1" /><polyline clip-path="url(#clip172)" style="stroke:#009af9; stroke-linecap:round; stroke-linejoin:round; stroke-width:4; stroke-opacity:1; fill:none" points="375.023,158.635 421.115,234.688 467.207,303.236 513.299,363.178 559.391,418.97 605.483,473.124 651.575,523.471 697.667,572.639 743.759,619.808 789.851,661.717 835.943,701.601 882.036,738.446 928.128,771.994 974.22,802.744 1020.31,832.028 1066.4,858.535 1112.5,883.032 1158.59,907.266 1204.68,929.785 1250.77,952.46 1296.86,970.828 1342.96,988.891 1389.05,1008.7 1435.14,1027.38 1481.23,1047.28 1527.32,1066.38 1573.42,1083.21 1619.51,1099.05 1665.6,1117.23 1711.69,1132.98 1757.78,1149.97 1803.88,1165.89 1849.97,1179.57 1896.06,1192.84 1942.15,1206.85 1988.24,1217.43 2034.34,1225.03 2080.43,1232.18 2126.52,1239.68 2172.61,1244.53 2218.71,1246.99 "/>
<polyline clip-path="url(#clip172)" style="stroke:#e26f46; stroke-linecap:round; stroke-linejoin:round; stroke-width:4; stroke-opacity:1; fill:none" points="375.023,158.635 421.115,221.119 467.207,278.872 513.299,334.948 559.391,389.719 605.483,441.871 651.575,489.736 697.667,533.512 743.759,573.869 789.851,611.918 835.943,647.923 882.036,680.824 928.128,710.702 974.22,737.22 1020.31,763.617 1066.4,788.065 1112.5,810.039 1158.59,831.857 1204.68,853.1 1250.77,871.828 1296.86,889.822 1342.96,908.399 1389.05,925.45 1435.14,943.115 1481.23,959.936 1527.32,975.453 1573.42,989.537 1619.51,1001.73 1665.6,1014.72 1711.69,1029.14 1757.78,1041.35 1803.88,1056.29 1849.97,1069.58 1896.06,1081.7 1942.15,1093.82 1988.24,1103.23 2034.34,1110.43 2080.43,1114.27 2126.52,1118.01 2172.61,1123.7 2218.71,1130.86 "/>
<polyline clip-path="url(#clip172)" style="stroke:#3da44d; stroke-linecap:round; stroke-linejoin:round; stroke-width:4; stroke-opacity:1; fill:none" points="375.023,158.635 421.115,229.413 467.207,293.874 513.299,353.47 559.391,411.023 605.483,464.887 651.575,512.854 697.667,557.037 743.759,600.003 789.851,639.477 835.943,675.53 882.036,708.559 928.128,739.83 974.22,767.197 1020.31,792.609 1066.4,815.384 1112.5,836.958 1158.59,857.203 1204.68,875.018 1250.77,890.676 1296.86,906.252 1342.96,921.504 1389.05,932.628 1435.14,941.799 1481.23,955.127 1527.32,966.042 1573.42,975.503 1619.51,984.988 1665.6,993.931 1711.69,1003.88 1757.78,1014.1 1803.88,1023.82 1849.97,1033.42 1896.06,1043.84 1942.15,1056.7 1988.24,1067.9 2034.34,1074.95 2080.43,1080.87 2126.52,1088.13 2172.61,1096.1 2218.71,1101.95 "/>
<polyline clip-path="url(#clip172)" style="stroke:#c271d2; stroke-linecap:round; stroke-linejoin:round; stroke-width:4; stroke-opacity:1; fill:none" points="375.023,158.635 421.115,219.915 467.207,277.096 513.299,330.437 559.391,380.545 605.483,426.315 651.575,469.503 697.667,510.076 743.759,548.637 789.851,586.395 835.943,620.442 882.036,652.193 928.128,681.545 974.22,710.857 1020.31,738.198 1066.4,763.228 1112.5,787.212 1158.59,809.745 1204.68,831.18 1250.77,851.631 1296.86,871.333 1342.96,888.942 1389.05,906.586 1435.14,922.481 1481.23,936.78 1527.32,950.426 1573.42,962.326 1619.51,973.313 1665.6,983.478 1711.69,992.931 1757.78,1003.4 1803.88,1013.15 1849.97,1023.53 1896.06,1032.14 1942.15,1039.29 1988.24,1045.77 2034.34,1051.71 2080.43,1058.67 2126.52,1065.65 2172.61,1070.66 2218.71,1075.14 "/>
<path clip-path="url(#clip170)" d="M659.023 33.9095 L643.167 76.907 L674.938 76.907 L659.023 33.9095 M652.426 22.3934 L665.679 22.3934 L698.607 108.793 L686.454 108.793 L678.584 86.6291 L639.637 86.6291 L631.767 108.793 L619.44 108.793 L652.426 22.3934 Z" fill="#000000" fill-rule="nonzero" fill-opacity="1" /><path clip-path="url(#clip170)" d="M709.66 83.2148 L709.66 43.9789 L720.308 43.9789 L720.308 82.8097 Q720.308 92.0111 723.896 96.6407 Q727.484 101.212 734.66 101.212 Q743.282 101.212 748.259 95.7147 Q753.294 90.2171 753.294 80.7264 L753.294 43.9789 L763.942 43.9789 L763.942 108.793 L753.294 108.793 L753.294 98.8397 Q749.416 104.742 744.266 107.636 Q739.173 110.472 732.403 110.472 Q721.234 110.472 715.447 103.527 Q709.66 96.5828 709.66 83.2148 M736.454 42.4164 L736.454 42.4164 Z" fill="#000000" fill-rule="nonzero" fill-opacity="1" /><path clip-path="url(#clip170)" d="M796.407 25.5762 L796.407 43.9789 L818.34 43.9789 L818.34 52.2543 L796.407 52.2543 L796.407 87.4393 Q796.407 95.3675 798.548 97.6245 Q800.747 99.8814 807.402 99.8814 L818.34 99.8814 L818.34 108.793 L807.402 108.793 Q795.076 108.793 790.388 104.222 Q785.701 99.592 785.701 87.4393 L785.701 52.2543 L777.889 52.2543 L777.889 43.9789 L785.701 43.9789 L785.701 25.5762 L796.407 25.5762 Z" fill="#000000" fill-rule="nonzero" fill-opacity="1" /><path clip-path="url(#clip170)" d="M857.46 51.4442 Q848.895 51.4442 843.918 58.1571 Q838.941 64.8121 838.941 76.444 Q838.941 88.0759 843.86 94.7888 Q848.837 101.444 857.46 101.444 Q865.967 101.444 870.944 94.731 Q875.92 88.018 875.92 76.444 Q875.92 64.9279 870.944 58.2149 Q865.967 51.4442 857.46 51.4442 M857.46 42.4164 Q871.349 42.4164 879.277 51.4442 Q887.205 60.4719 887.205 76.444 Q887.205 92.3583 879.277 101.444 Q871.349 110.472 857.46 110.472 Q843.513 110.472 835.585 101.444 Q827.715 92.3583 827.715 76.444 Q827.715 60.4719 835.585 51.4442 Q843.513 42.4164 857.46 42.4164 Z" fill="#000000" fill-rule="nonzero" fill-opacity="1" /><path clip-path="url(#clip170)" d="M951.499 46.4673 L951.499 56.421 Q946.985 53.9326 942.413 52.7173 Q937.899 51.4442 933.27 51.4442 Q922.911 51.4442 917.182 58.0413 Q911.453 64.5807 911.453 76.444 Q911.453 88.3074 917.182 94.9046 Q922.911 101.444 933.27 101.444 Q937.899 101.444 942.413 100.229 Q946.985 98.9555 951.499 96.4671 L951.499 106.305 Q947.043 108.388 942.24 109.43 Q937.494 110.472 932.112 110.472 Q917.471 110.472 908.849 101.27 Q900.226 92.0689 900.226 76.444 Q900.226 60.5876 908.906 51.502 Q917.645 42.4164 932.807 42.4164 Q937.726 42.4164 942.413 43.4581 Q947.101 44.4419 951.499 46.4673 Z" fill="#000000" fill-rule="nonzero" fill-opacity="1" /><path clip-path="url(#clip170)" d="M995.133 51.4442 Q986.568 51.4442 981.591 58.1571 Q976.614 64.8121 976.614 76.444 Q976.614 88.0759 981.533 94.7888 Q986.51 101.444 995.133 101.444 Q1003.64 101.444 1008.62 94.731 Q1013.59 88.018 1013.59 76.444 Q1013.59 64.9279 1008.62 58.2149 Q1003.64 51.4442 995.133 51.4442 M995.133 42.4164 Q1009.02 42.4164 1016.95 51.4442 Q1024.88 60.4719 1024.88 76.444 Q1024.88 92.3583 1016.95 101.444 Q1009.02 110.472 995.133 110.472 Q981.186 110.472 973.258 101.444 Q965.388 92.3583 965.388 76.444 Q965.388 60.4719 973.258 51.4442 Q981.186 42.4164 995.133 42.4164 Z" fill="#000000" fill-rule="nonzero" fill-opacity="1" /><path clip-path="url(#clip170)" d="M1080.09 53.9326 Q1078.29 52.8909 1076.15 52.4279 Q1074.07 51.9071 1071.52 51.9071 Q1062.49 51.9071 1057.63 57.8099 Q1052.83 63.6547 1052.83 74.65 L1052.83 108.793 L1042.12 108.793 L1042.12 43.9789 L1052.83 43.9789 L1052.83 54.0483 Q1056.19 48.1456 1061.57 45.3099 Q1066.95 42.4164 1074.65 42.4164 Q1075.75 42.4164 1077.08 42.59 Q1078.41 42.7058 1080.03 42.9951 L1080.09 53.9326 Z" fill="#000000" fill-rule="nonzero" fill-opacity="1" /><path clip-path="url(#clip170)" d="M1126.73 53.9326 Q1124.94 52.8909 1122.79 52.4279 Q1120.71 51.9071 1118.16 51.9071 Q1109.14 51.9071 1104.28 57.8099 Q1099.47 63.6547 1099.47 74.65 L1099.47 108.793 L1088.77 108.793 L1088.77 43.9789 L1099.47 43.9789 L1099.47 54.0483 Q1102.83 48.1456 1108.21 45.3099 Q1113.59 42.4164 1121.29 42.4164 Q1122.39 42.4164 1123.72 42.59 Q1125.05 42.7058 1126.67 42.9951 L1126.73 53.9326 Z" fill="#000000" fill-rule="nonzero" fill-opacity="1" /><path clip-path="url(#clip170)" d="M1190.73 73.7241 L1190.73 78.9324 L1141.78 78.9324 Q1142.47 89.9277 1148.37 95.7147 Q1154.33 101.444 1164.92 101.444 Q1171.06 101.444 1176.79 99.9393 Q1182.57 98.4346 1188.25 95.4254 L1188.25 105.495 Q1182.52 107.925 1176.5 109.198 Q1170.48 110.472 1164.29 110.472 Q1148.78 110.472 1139.69 101.444 Q1130.66 92.4162 1130.66 77.0227 Q1130.66 61.1085 1139.23 51.7914 Q1147.85 42.4164 1162.44 42.4164 Q1175.51 42.4164 1183.09 50.8654 Q1190.73 59.2566 1190.73 73.7241 M1180.09 70.5991 Q1179.97 61.8608 1175.17 56.6525 Q1170.42 51.4442 1162.55 51.4442 Q1153.64 51.4442 1148.26 56.4788 Q1142.93 61.5135 1142.12 70.657 L1180.09 70.5991 Z" fill="#000000" fill-rule="nonzero" fill-opacity="1" /><path clip-path="url(#clip170)" d="M1208.21 18.7476 L1218.86 18.7476 L1218.86 108.793 L1208.21 108.793 L1208.21 18.7476 Z" fill="#000000" fill-rule="nonzero" fill-opacity="1" /><path clip-path="url(#clip170)" d="M1270.59 76.2125 Q1257.69 76.2125 1252.71 79.1639 Q1247.74 82.1153 1247.74 89.2333 Q1247.74 94.9046 1251.44 98.261 Q1255.2 101.56 1261.62 101.56 Q1270.48 101.56 1275.8 95.3097 Q1281.18 89.0018 1281.18 78.5852 L1281.18 76.2125 L1270.59 76.2125 M1291.83 71.8144 L1291.83 108.793 L1281.18 108.793 L1281.18 98.9555 Q1277.54 104.858 1272.1 107.694 Q1266.66 110.472 1258.79 110.472 Q1248.84 110.472 1242.93 104.916 Q1237.09 99.3027 1237.09 89.9277 Q1237.09 78.9903 1244.38 73.4348 Q1251.73 67.8792 1266.25 67.8792 L1281.18 67.8792 L1281.18 66.8376 Q1281.18 59.4881 1276.32 55.4951 Q1271.52 51.4442 1262.78 51.4442 Q1257.23 51.4442 1251.96 52.7752 Q1246.69 54.1062 1241.83 56.7682 L1241.83 46.9303 Q1247.68 44.6734 1253.18 43.5738 Q1258.67 42.4164 1263.88 42.4164 Q1277.94 42.4164 1284.89 49.708 Q1291.83 56.9997 1291.83 71.8144 Z" fill="#000000" fill-rule="nonzero" fill-opacity="1" /><path clip-path="url(#clip170)" d="M1324.3 25.5762 L1324.3 43.9789 L1346.23 43.9789 L1346.23 52.2543 L1324.3 52.2543 L1324.3 87.4393 Q1324.3 95.3675 1326.44 97.6245 Q1328.64 99.8814 1335.29 99.8814 L1346.23 99.8814 L1346.23 108.793 L1335.29 108.793 Q1322.97 108.793 1318.28 104.222 Q1313.59 99.592 1313.59 87.4393 L1313.59 52.2543 L1305.78 52.2543 L1305.78 43.9789 L1313.59 43.9789 L1313.59 25.5762 L1324.3 25.5762 Z" fill="#000000" fill-rule="nonzero" fill-opacity="1" /><path clip-path="url(#clip170)" d="M1360.23 43.9789 L1370.88 43.9789 L1370.88 108.793 L1360.23 108.793 L1360.23 43.9789 M1360.23 18.7476 L1370.88 18.7476 L1370.88 32.2313 L1360.23 32.2313 L1360.23 18.7476 Z" fill="#000000" fill-rule="nonzero" fill-opacity="1" /><path clip-path="url(#clip170)" d="M1418.28 51.4442 Q1409.71 51.4442 1404.74 58.1571 Q1399.76 64.8121 1399.76 76.444 Q1399.76 88.0759 1404.68 94.7888 Q1409.66 101.444 1418.28 101.444 Q1426.79 101.444 1431.76 94.731 Q1436.74 88.018 1436.74 76.444 Q1436.74 64.9279 1431.76 58.2149 Q1426.79 51.4442 1418.28 51.4442 M1418.28 42.4164 Q1432.17 42.4164 1440.1 51.4442 Q1448.02 60.4719 1448.02 76.444 Q1448.02 92.3583 1440.1 101.444 Q1432.17 110.472 1418.28 110.472 Q1404.33 110.472 1396.4 101.444 Q1388.53 92.3583 1388.53 76.444 Q1388.53 60.4719 1396.4 51.4442 Q1404.33 42.4164 1418.28 42.4164 Z" fill="#000000" fill-rule="nonzero" fill-opacity="1" /><path clip-path="url(#clip170)" d="M1519.55 69.6732 L1519.55 108.793 L1508.9 108.793 L1508.9 70.0204 Q1508.9 60.8191 1505.32 56.2474 Q1501.73 51.6756 1494.55 51.6756 Q1485.93 51.6756 1480.95 57.1733 Q1475.98 62.6709 1475.98 72.1616 L1475.98 108.793 L1465.27 108.793 L1465.27 43.9789 L1475.98 43.9789 L1475.98 54.0483 Q1479.79 48.2034 1484.94 45.3099 Q1490.15 42.4164 1496.92 42.4164 Q1508.09 42.4164 1513.82 49.3608 Q1519.55 56.2474 1519.55 69.6732 Z" fill="#000000" fill-rule="nonzero" fill-opacity="1" /><path clip-path="url(#clip170)" d="M1623.92 75.3578 Q1623.92 84.0241 1619.47 92.1634 Q1615.08 100.303 1608.17 105.221 Q1601.32 110.14 1594.41 110.14 Q1586.62 110.14 1582.58 102.059 Q1575.26 131.396 1574.85 132.157 Q1573.15 134.675 1570.69 134.675 Q1569.17 134.675 1568.23 133.738 Q1567.29 132.86 1567.29 131.455 Q1567.35 130.986 1567.7 129.522 L1579.42 82.3846 Q1582.11 71.4346 1590.25 63.6466 Q1598.45 55.8001 1607.23 55.8001 Q1614.2 55.8001 1619.06 61.0116 Q1623.92 66.2231 1623.92 75.3578 M1615.31 70.2049 Q1615.31 64.3493 1612.97 61.4215 Q1610.63 58.4351 1607 58.4351 Q1603.66 58.4351 1599.62 61.1287 Q1595.64 63.8223 1592.12 69.795 Q1590.25 73.2498 1588.9 77.5244 Q1587.55 81.799 1584.92 92.3391 Q1583.98 96.5552 1583.98 96.7894 Q1583.98 97.2578 1584.22 98.3118 Q1584.51 99.3658 1585.21 101.005 Q1585.97 102.586 1587.03 103.992 Q1588.08 105.397 1590.01 106.451 Q1591.95 107.447 1594.29 107.447 Q1597.92 107.447 1601.78 104.519 Q1605.71 101.532 1608.58 96.0867 Q1610.98 91.695 1613.14 83.4386 Q1615.31 75.1236 1615.31 70.2049 Z" fill="#000000" fill-rule="nonzero" fill-opacity="1" /><path clip-path="url(#clip170)" d="M1661.95 130.414 Q1661.95 131.562 1661.42 131.849 Q1660.89 132.095 1659.41 132.095 L1651.54 132.095 L1645.31 156.852 Q1644.82 159.025 1644.82 160.869 Q1644.82 162.919 1645.44 163.82 Q1646.09 164.722 1647.44 164.722 Q1650.11 164.722 1652.98 162.304 Q1655.89 159.885 1658.35 153.983 Q1658.68 153.204 1658.84 153.04 Q1659.04 152.835 1659.58 152.835 Q1660.6 152.835 1660.6 153.655 Q1660.6 153.942 1660.03 155.254 Q1659.5 156.565 1658.31 158.492 Q1657.16 160.418 1655.64 162.222 Q1654.17 164.025 1651.91 165.337 Q1649.66 166.608 1647.24 166.608 Q1643.84 166.608 1641.66 164.435 Q1639.53 162.263 1639.53 158.861 Q1639.53 157.754 1640.39 154.229 Q1641.25 150.663 1645.93 132.095 L1638.51 132.095 Q1637.48 132.095 1637.07 132.054 Q1636.71 132.013 1636.42 131.808 Q1636.17 131.562 1636.17 131.07 Q1636.17 130.291 1636.5 129.963 Q1636.83 129.594 1637.24 129.553 Q1637.69 129.471 1638.71 129.471 L1646.58 129.471 L1649.86 116.15 Q1650.19 114.838 1651.01 114.1 Q1651.87 113.322 1652.36 113.24 Q1652.85 113.117 1653.22 113.117 Q1654.33 113.117 1654.99 113.732 Q1655.64 114.305 1655.64 115.371 Q1655.64 115.945 1652.2 129.471 L1659.58 129.471 Q1660.52 129.471 1660.89 129.512 Q1661.3 129.553 1661.63 129.758 Q1661.95 129.963 1661.95 130.414 Z" fill="#000000" fill-rule="nonzero" fill-opacity="1" /><path clip-path="url(#clip170)" d="M1756.15 18.7476 L1756.15 27.6017 L1745.97 27.6017 Q1740.24 27.6017 1737.98 29.9165 Q1735.78 32.2313 1735.78 38.2498 L1735.78 43.9789 L1753.32 43.9789 L1753.32 52.2543 L1735.78 52.2543 L1735.78 108.793 L1725.08 108.793 L1725.08 52.2543 L1714.89 52.2543 L1714.89 43.9789 L1725.08 43.9789 L1725.08 39.465 Q1725.08 28.6433 1730.11 23.7244 Q1735.15 18.7476 1746.09 18.7476 L1756.15 18.7476 Z" fill="#000000" fill-rule="nonzero" fill-opacity="1" /><path clip-path="url(#clip170)" d="M1790.18 51.4442 Q1781.62 51.4442 1776.64 58.1571 Q1771.66 64.8121 1771.66 76.444 Q1771.66 88.0759 1776.58 94.7888 Q1781.56 101.444 1790.18 101.444 Q1798.69 101.444 1803.67 94.731 Q1808.64 88.018 1808.64 76.444 Q1808.64 64.9279 1803.67 58.2149 Q1798.69 51.4442 1790.18 51.4442 M1790.18 42.4164 Q1804.07 42.4164 1812 51.4442 Q1819.93 60.4719 1819.93 76.444 Q1819.93 92.3583 1812 101.444 Q1804.07 110.472 1790.18 110.472 Q1776.24 110.472 1768.31 101.444 Q1760.44 92.3583 1760.44 76.444 Q1760.44 60.4719 1768.31 51.4442 Q1776.24 42.4164 1790.18 42.4164 Z" fill="#000000" fill-rule="nonzero" fill-opacity="1" /><path clip-path="url(#clip170)" d="M1875.14 53.9326 Q1873.34 52.8909 1871.2 52.4279 Q1869.12 51.9071 1866.57 51.9071 Q1857.54 51.9071 1852.68 57.8099 Q1847.88 63.6547 1847.88 74.65 L1847.88 108.793 L1837.17 108.793 L1837.17 43.9789 L1847.88 43.9789 L1847.88 54.0483 Q1851.24 48.1456 1856.62 45.3099 Q1862 42.4164 1869.7 42.4164 Q1870.8 42.4164 1872.13 42.59 Q1873.46 42.7058 1875.08 42.9951 L1875.14 53.9326 Z" fill="#000000" fill-rule="nonzero" fill-opacity="1" /><path clip-path="url(#clip170)" d="M1975.76 74.4608 Q1975.76 74.9293 1973.47 79.0282 Q1969.67 86.5819 1964.81 98.1175 Q1959.95 109.653 1957.19 118.202 Q1956.61 120.252 1956.2 122.887 Q1955.15 130.967 1951.75 143.498 Q1950.58 147.422 1949.82 149.061 Q1949.06 150.701 1947.94 150.701 Q1946.36 150.701 1946.36 148.534 Q1946.36 146.368 1948.35 138.287 Q1950.4 130.206 1952.63 122.77 Q1954.03 118.671 1954.03 111 Q1954.03 108.54 1953.92 106.315 Q1953.8 104.09 1953.33 100.87 Q1952.86 97.649 1952.1 95.014 Q1951.34 92.379 1949.88 89.6269 Q1948.41 86.8162 1946.42 84.9424 Q1944.43 83.01 1941.38 81.7803 Q1938.4 80.5507 1934.65 80.5507 Q1933.71 80.5507 1932.54 80.6678 Q1931.43 80.7263 1928.74 81.4876 Q1926.1 82.2488 1923.88 83.5956 Q1921.65 84.8838 1919.25 87.7531 Q1916.85 90.6223 1915.56 94.487 L1915.09 95.0726 Q1914.33 95.0726 1913.92 95.0726 Q1913.57 95.014 1913.16 94.7212 Q1912.81 94.4285 1912.81 93.9015 Q1912.81 92.6718 1913.75 90.2124 Q1914.74 87.7531 1916.73 84.591 Q1918.78 81.429 1921.42 78.6183 Q1924.11 75.8076 1928.03 73.8753 Q1931.96 71.9429 1936.17 71.9429 Q1947.01 71.9429 1952.16 85.118 Q1956.67 96.3023 1957.08 109.594 Q1966.45 85.9964 1972.89 74.1095 Q1973.24 73.2311 1974.29 73.2311 Q1975.76 73.2897 1975.76 74.4608 Z" fill="#000000" fill-rule="nonzero" fill-opacity="1" /></svg>
