<?xml version="1.0" encoding="utf-8"?>
<svg xmlns="http://www.w3.org/2000/svg" xmlns:xlink="http://www.w3.org/1999/xlink" width="600" height="400" viewBox="0 0 2400 1600">
<defs>
  <clipPath id="clip980">
    <rect x="0" y="0" width="2400" height="1600"/>
  </clipPath>
</defs>
<path clip-path="url(#clip980)" d="M0 1600 L2400 1600 L2400 0 L0 0  Z" fill="#ffffff" fill-rule="evenodd" fill-opacity="1"/>
<defs>
  <clipPath id="clip981">
    <rect x="480" y="0" width="1681" height="1600"/>
  </clipPath>
</defs>
<path clip-path="url(#clip980)" d="M370.424 1288.28 L2274.02 1288.28 L2274.02 125.984 L370.424 125.984  Z" fill="#ffffff" fill-rule="evenodd" fill-opacity="1"/>
<defs>
  <clipPath id="clip982">
    <rect x="370" y="125" width="1905" height="1163"/>
  </clipPath>
</defs>
<polyline clip-path="url(#clip982)" style="stroke:#000000; stroke-linecap:round; stroke-linejoin:round; stroke-width:2; stroke-opacity:0.1; fill:none" points="424.299,1288.28 424.299,125.984 "/>
<polyline clip-path="url(#clip982)" style="stroke:#000000; stroke-linecap:round; stroke-linejoin:round; stroke-width:2; stroke-opacity:0.1; fill:none" points="873.259,1288.28 873.259,125.984 "/>
<polyline clip-path="url(#clip982)" style="stroke:#000000; stroke-linecap:round; stroke-linejoin:round; stroke-width:2; stroke-opacity:0.1; fill:none" points="1322.22,1288.28 1322.22,125.984 "/>
<polyline clip-path="url(#clip982)" style="stroke:#000000; stroke-linecap:round; stroke-linejoin:round; stroke-width:2; stroke-opacity:0.1; fill:none" points="1771.18,1288.28 1771.18,125.984 "/>
<polyline clip-path="url(#clip982)" style="stroke:#000000; stroke-linecap:round; stroke-linejoin:round; stroke-width:2; stroke-opacity:0.1; fill:none" points="2220.14,1288.28 2220.14,125.984 "/>
<polyline clip-path="url(#clip982)" style="stroke:#000000; stroke-linecap:round; stroke-linejoin:round; stroke-width:2; stroke-opacity:0.1; fill:none" points="370.424,1219.87 2274.02,1219.87 "/>
<polyline clip-path="url(#clip982)" style="stroke:#000000; stroke-linecap:round; stroke-linejoin:round; stroke-width:2; stroke-opacity:0.1; fill:none" points="370.424,954.626 2274.02,954.626 "/>
<polyline clip-path="url(#clip982)" style="stroke:#000000; stroke-linecap:round; stroke-linejoin:round; stroke-width:2; stroke-opacity:0.1; fill:none" points="370.424,689.377 2274.02,689.377 "/>
<polyline clip-path="url(#clip982)" style="stroke:#000000; stroke-linecap:round; stroke-linejoin:round; stroke-width:2; stroke-opacity:0.1; fill:none" points="370.424,424.128 2274.02,424.128 "/>
<polyline clip-path="url(#clip982)" style="stroke:#000000; stroke-linecap:round; stroke-linejoin:round; stroke-width:2; stroke-opacity:0.1; fill:none" points="370.424,158.879 2274.02,158.879 "/>
<polyline clip-path="url(#clip980)" style="stroke:#000000; stroke-linecap:round; stroke-linejoin:round; stroke-width:4; stroke-opacity:1; fill:none" points="370.424,1288.28 2274.02,1288.28 "/>
<polyline clip-path="url(#clip980)" style="stroke:#000000; stroke-linecap:round; stroke-linejoin:round; stroke-width:4; stroke-opacity:1; fill:none" points="424.299,1288.28 424.299,1269.38 "/>
<polyline clip-path="url(#clip980)" style="stroke:#000000; stroke-linecap:round; stroke-linejoin:round; stroke-width:4; stroke-opacity:1; fill:none" points="873.259,1288.28 873.259,1269.38 "/>
<polyline clip-path="url(#clip980)" style="stroke:#000000; stroke-linecap:round; stroke-linejoin:round; stroke-width:4; stroke-opacity:1; fill:none" points="1322.22,1288.28 1322.22,1269.38 "/>
<polyline clip-path="url(#clip980)" style="stroke:#000000; stroke-linecap:round; stroke-linejoin:round; stroke-width:4; stroke-opacity:1; fill:none" points="1771.18,1288.28 1771.18,1269.38 "/>
<polyline clip-path="url(#clip980)" style="stroke:#000000; stroke-linecap:round; stroke-linejoin:round; stroke-width:4; stroke-opacity:1; fill:none" points="2220.14,1288.28 2220.14,1269.38 "/>
<path clip-path="url(#clip980)" d="M424.299 1330.92 Q417.077 1330.92 413.42 1338.05 Q409.808 1345.13 409.808 1359.39 Q409.808 1373.6 413.42 1380.73 Q417.077 1387.81 424.299 1387.81 Q431.568 1387.81 435.179 1380.73 Q438.836 1373.6 438.836 1359.39 Q438.836 1345.13 435.179 1338.05 Q431.568 1330.92 424.299 1330.92 M424.299 1323.51 Q435.919 1323.51 442.031 1332.72 Q448.188 1341.89 448.188 1359.39 Q448.188 1376.84 442.031 1386.06 Q435.919 1395.22 424.299 1395.22 Q412.679 1395.22 406.521 1386.06 Q400.41 1376.84 400.41 1359.39 Q400.41 1341.89 406.521 1332.72 Q412.679 1323.51 424.299 1323.51 Z" fill="#000000" fill-rule="nonzero" fill-opacity="1" /><path clip-path="url(#clip980)" d="M831.801 1386.01 L864.44 1386.01 L864.44 1393.88 L820.551 1393.88 L820.551 1386.01 Q825.875 1380.5 835.042 1371.24 Q844.255 1361.94 846.616 1359.25 Q851.107 1354.2 852.866 1350.73 Q854.672 1347.21 854.672 1343.83 Q854.672 1338.32 850.783 1334.85 Q846.94 1331.38 840.737 1331.38 Q836.338 1331.38 831.431 1332.91 Q826.57 1334.44 821.014 1337.54 L821.014 1328.09 Q826.663 1325.82 831.57 1324.67 Q836.477 1323.51 840.551 1323.51 Q851.292 1323.51 857.681 1328.88 Q864.07 1334.25 864.07 1343.23 Q864.07 1347.49 862.449 1351.33 Q860.875 1355.13 856.662 1360.32 Q855.505 1361.66 849.301 1368.09 Q843.098 1374.48 831.801 1386.01 Z" fill="#000000" fill-rule="nonzero" fill-opacity="1" /><path clip-path="url(#clip980)" d="M884.162 1324.76 L920.875 1324.76 L920.875 1332.63 L892.727 1332.63 L892.727 1349.57 Q894.764 1348.88 896.801 1348.56 Q898.838 1348.19 900.875 1348.19 Q912.449 1348.19 919.208 1354.53 Q925.968 1360.87 925.968 1371.7 Q925.968 1382.86 919.023 1389.06 Q912.079 1395.22 899.44 1395.22 Q895.088 1395.22 890.551 1394.48 Q886.06 1393.74 881.246 1392.26 L881.246 1382.86 Q885.412 1385.13 889.857 1386.24 Q894.301 1387.35 899.255 1387.35 Q907.264 1387.35 911.94 1383.14 Q916.616 1378.93 916.616 1371.7 Q916.616 1364.48 911.94 1360.27 Q907.264 1356.06 899.255 1356.06 Q895.505 1356.06 891.755 1356.89 Q888.051 1357.72 884.162 1359.48 L884.162 1324.76 Z" fill="#000000" fill-rule="nonzero" fill-opacity="1" /><path clip-path="url(#clip980)" d="M1271.62 1324.76 L1308.33 1324.76 L1308.33 1332.63 L1280.18 1332.63 L1280.18 1349.57 Q1282.22 1348.88 1284.26 1348.56 Q1286.29 1348.19 1288.33 1348.19 Q1299.91 1348.19 1306.66 1354.53 Q1313.42 1360.87 1313.42 1371.7 Q1313.42 1382.86 1306.48 1389.06 Q1299.53 1395.22 1286.9 1395.22 Q1282.54 1395.22 1278.01 1394.48 Q1273.52 1393.74 1268.7 1392.26 L1268.7 1382.86 Q1272.87 1385.13 1277.31 1386.24 Q1281.76 1387.35 1286.71 1387.35 Q1294.72 1387.35 1299.4 1383.14 Q1304.07 1378.93 1304.07 1371.7 Q1304.07 1364.48 1299.4 1360.27 Q1294.72 1356.06 1286.71 1356.06 Q1282.96 1356.06 1279.21 1356.89 Q1275.51 1357.72 1271.62 1359.48 L1271.62 1324.76 Z" fill="#000000" fill-rule="nonzero" fill-opacity="1" /><path clip-path="url(#clip980)" d="M1351.85 1330.92 Q1344.63 1330.92 1340.97 1338.05 Q1337.36 1345.13 1337.36 1359.39 Q1337.36 1373.6 1340.97 1380.73 Q1344.63 1387.81 1351.85 1387.81 Q1359.12 1387.81 1362.73 1380.73 Q1366.39 1373.6 1366.39 1359.39 Q1366.39 1345.13 1362.73 1338.05 Q1359.12 1330.92 1351.85 1330.92 M1351.85 1323.51 Q1363.47 1323.51 1369.58 1332.72 Q1375.74 1341.89 1375.74 1359.39 Q1375.74 1376.84 1369.58 1386.06 Q1363.47 1395.22 1351.85 1395.22 Q1340.23 1395.22 1334.07 1386.06 Q1327.96 1376.84 1327.96 1359.39 Q1327.96 1341.89 1334.07 1332.72 Q1340.23 1323.51 1351.85 1323.51 Z" fill="#000000" fill-rule="nonzero" fill-opacity="1" /><path clip-path="url(#clip980)" d="M1718.89 1324.76 L1763.33 1324.76 L1763.33 1328.74 L1738.24 1393.88 L1728.47 1393.88 L1752.08 1332.63 L1718.89 1332.63 L1718.89 1324.76 Z" fill="#000000" fill-rule="nonzero" fill-opacity="1" /><path clip-path="url(#clip980)" d="M1781.67 1324.76 L1818.38 1324.76 L1818.38 1332.63 L1790.23 1332.63 L1790.23 1349.57 Q1792.27 1348.88 1794.31 1348.56 Q1796.34 1348.19 1798.38 1348.19 Q1809.95 1348.19 1816.71 1354.53 Q1823.47 1360.87 1823.47 1371.7 Q1823.47 1382.86 1816.53 1389.06 Q1809.58 1395.22 1796.94 1395.22 Q1792.59 1395.22 1788.06 1394.48 Q1783.56 1393.74 1778.75 1392.26 L1778.75 1382.86 Q1782.92 1385.13 1787.36 1386.24 Q1791.81 1387.35 1796.76 1387.35 Q1804.77 1387.35 1809.44 1383.14 Q1814.12 1378.93 1814.12 1371.7 Q1814.12 1364.48 1809.44 1360.27 Q1804.77 1356.06 1796.76 1356.06 Q1793.01 1356.06 1789.26 1356.89 Q1785.56 1357.72 1781.67 1359.48 L1781.67 1324.76 Z" fill="#000000" fill-rule="nonzero" fill-opacity="1" /><path clip-path="url(#clip980)" d="M2139.35 1386.01 L2154.63 1386.01 L2154.63 1333.28 L2138.01 1336.61 L2138.01 1328.09 L2154.54 1324.76 L2163.89 1324.76 L2163.89 1386.01 L2179.17 1386.01 L2179.17 1393.88 L2139.35 1393.88 L2139.35 1386.01 Z" fill="#000000" fill-rule="nonzero" fill-opacity="1" /><path clip-path="url(#clip980)" d="M2218.06 1330.92 Q2210.84 1330.92 2207.18 1338.05 Q2203.57 1345.13 2203.57 1359.39 Q2203.57 1373.6 2207.18 1380.73 Q2210.84 1387.81 2218.06 1387.81 Q2225.33 1387.81 2228.94 1380.73 Q2232.59 1373.6 2232.59 1359.39 Q2232.59 1345.13 2228.94 1338.05 Q2225.33 1330.92 2218.06 1330.92 M2218.06 1323.51 Q2229.68 1323.51 2235.79 1332.72 Q2241.95 1341.89 2241.95 1359.39 Q2241.95 1376.84 2235.79 1386.06 Q2229.68 1395.22 2218.06 1395.22 Q2206.44 1395.22 2200.28 1386.06 Q2194.17 1376.84 2194.17 1359.39 Q2194.17 1341.89 2200.28 1332.72 Q2206.44 1323.51 2218.06 1323.51 Z" fill="#000000" fill-rule="nonzero" fill-opacity="1" /><path clip-path="url(#clip980)" d="M2278.38 1330.92 Q2271.16 1330.92 2267.5 1338.05 Q2263.89 1345.13 2263.89 1359.39 Q2263.89 1373.6 2267.5 1380.73 Q2271.16 1387.81 2278.38 1387.81 Q2285.65 1387.81 2289.26 1380.73 Q2292.92 1373.6 2292.92 1359.39 Q2292.92 1345.13 2289.26 1338.05 Q2285.65 1330.92 2278.38 1330.92 M2278.38 1323.51 Q2290 1323.51 2296.11 1332.72 Q2302.27 1341.89 2302.27 1359.39 Q2302.27 1376.84 2296.11 1386.06 Q2290 1395.22 2278.38 1395.22 Q2266.76 1395.22 2260.6 1386.06 Q2254.49 1376.84 2254.49 1359.39 Q2254.49 1341.89 2260.6 1332.72 Q2266.76 1323.51 2278.38 1323.51 Z" fill="#000000" fill-rule="nonzero" fill-opacity="1" /><path clip-path="url(#clip980)" d="M1245.62 1441.78 L1254.97 1441.78 L1254.97 1503.03 L1288.63 1503.03 L1288.63 1510.9 L1245.62 1510.9 L1245.62 1441.78 Z" fill="#000000" fill-rule="nonzero" fill-opacity="1" /><path clip-path="url(#clip980)" d="M1321.64 1484.84 Q1311.32 1484.84 1307.34 1487.2 Q1303.35 1489.56 1303.35 1495.26 Q1303.35 1499.79 1306.32 1502.48 Q1309.33 1505.12 1314.47 1505.12 Q1321.55 1505.12 1325.81 1500.12 Q1330.11 1495.07 1330.11 1486.74 L1330.11 1484.84 L1321.64 1484.84 M1338.63 1481.32 L1338.63 1510.9 L1330.11 1510.9 L1330.11 1503.03 Q1327.2 1507.76 1322.84 1510.02 Q1318.49 1512.25 1312.2 1512.25 Q1304.23 1512.25 1299.51 1507.8 Q1294.84 1503.31 1294.84 1495.81 Q1294.84 1487.06 1300.67 1482.62 Q1306.55 1478.17 1318.17 1478.17 L1330.11 1478.17 L1330.11 1477.34 Q1330.11 1471.46 1326.22 1468.27 Q1322.38 1465.02 1315.39 1465.02 Q1310.95 1465.02 1306.73 1466.09 Q1302.52 1467.15 1298.63 1469.28 L1298.63 1461.41 Q1303.31 1459.61 1307.71 1458.73 Q1312.1 1457.8 1316.27 1457.8 Q1327.52 1457.8 1333.08 1463.64 Q1338.63 1469.47 1338.63 1481.32 Z" fill="#000000" fill-rule="nonzero" fill-opacity="1" /><path clip-path="url(#clip980)" d="M1390.3 1484.38 Q1390.3 1475.12 1386.46 1470.02 Q1382.66 1464.93 1375.76 1464.93 Q1368.91 1464.93 1365.07 1470.02 Q1361.27 1475.12 1361.27 1484.38 Q1361.27 1493.59 1365.07 1498.68 Q1368.91 1503.77 1375.76 1503.77 Q1382.66 1503.77 1386.46 1498.68 Q1390.3 1493.59 1390.3 1484.38 M1398.82 1504.47 Q1398.82 1517.71 1392.94 1524.14 Q1387.06 1530.63 1374.93 1530.63 Q1370.44 1530.63 1366.46 1529.93 Q1362.47 1529.28 1358.72 1527.89 L1358.72 1519.61 Q1362.47 1521.64 1366.13 1522.62 Q1369.79 1523.59 1373.59 1523.59 Q1381.96 1523.59 1386.13 1519.19 Q1390.3 1514.84 1390.3 1506 L1390.3 1501.78 Q1387.66 1506.37 1383.54 1508.64 Q1379.42 1510.9 1373.68 1510.9 Q1364.14 1510.9 1358.31 1503.64 Q1352.47 1496.37 1352.47 1484.38 Q1352.47 1472.34 1358.31 1465.07 Q1364.14 1457.8 1373.68 1457.8 Q1379.42 1457.8 1383.54 1460.07 Q1387.66 1462.34 1390.3 1466.92 L1390.3 1459.05 L1398.82 1459.05 L1398.82 1504.47 Z" fill="#000000" fill-rule="nonzero" fill-opacity="1" /><polyline clip-path="url(#clip980)" style="stroke:#000000; stroke-linecap:round; stroke-linejoin:round; stroke-width:4; stroke-opacity:1; fill:none" points="370.424,1288.28 370.424,125.984 "/>
<polyline clip-path="url(#clip980)" style="stroke:#000000; stroke-linecap:round; stroke-linejoin:round; stroke-width:4; stroke-opacity:1; fill:none" points="370.424,1219.87 389.322,1219.87 "/>
<polyline clip-path="url(#clip980)" style="stroke:#000000; stroke-linecap:round; stroke-linejoin:round; stroke-width:4; stroke-opacity:1; fill:none" points="370.424,954.626 389.322,954.626 "/>
<polyline clip-path="url(#clip980)" style="stroke:#000000; stroke-linecap:round; stroke-linejoin:round; stroke-width:4; stroke-opacity:1; fill:none" points="370.424,689.377 389.322,689.377 "/>
<polyline clip-path="url(#clip980)" style="stroke:#000000; stroke-linecap:round; stroke-linejoin:round; stroke-width:4; stroke-opacity:1; fill:none" points="370.424,424.128 389.322,424.128 "/>
<polyline clip-path="url(#clip980)" style="stroke:#000000; stroke-linecap:round; stroke-linejoin:round; stroke-width:4; stroke-opacity:1; fill:none" points="370.424,158.879 389.322,158.879 "/>
<path clip-path="url(#clip980)" d="M159.749 1191.47 Q152.527 1191.47 148.869 1198.6 Q145.258 1205.68 145.258 1219.94 Q145.258 1234.16 148.869 1241.29 Q152.527 1248.37 159.749 1248.37 Q167.017 1248.37 170.628 1241.29 Q174.286 1234.16 174.286 1219.94 Q174.286 1205.68 170.628 1198.6 Q167.017 1191.47 159.749 1191.47 M159.749 1184.06 Q171.369 1184.06 177.48 1193.28 Q183.638 1202.44 183.638 1219.94 Q183.638 1237.4 177.48 1246.61 Q171.369 1255.78 159.749 1255.78 Q148.129 1255.78 141.971 1246.61 Q135.86 1237.4 135.86 1219.94 Q135.86 1202.44 141.971 1193.28 Q148.129 1184.06 159.749 1184.06 Z" fill="#000000" fill-rule="nonzero" fill-opacity="1" /><path clip-path="url(#clip980)" d="M200.073 1242.68 L209.841 1242.68 L209.841 1254.43 L200.073 1254.43 L200.073 1242.68 Z" fill="#000000" fill-rule="nonzero" fill-opacity="1" /><path clip-path="url(#clip980)" d="M250.211 1191.47 Q242.989 1191.47 239.332 1198.6 Q235.721 1205.68 235.721 1219.94 Q235.721 1234.16 239.332 1241.29 Q242.989 1248.37 250.211 1248.37 Q257.48 1248.37 261.091 1241.29 Q264.748 1234.16 264.748 1219.94 Q264.748 1205.68 261.091 1198.6 Q257.48 1191.47 250.211 1191.47 M250.211 1184.06 Q261.832 1184.06 267.943 1193.28 Q274.1 1202.44 274.1 1219.94 Q274.1 1237.4 267.943 1246.61 Q261.832 1255.78 250.211 1255.78 Q238.591 1255.78 232.434 1246.61 Q226.323 1237.4 226.323 1219.94 Q226.323 1202.44 232.434 1193.28 Q238.591 1184.06 250.211 1184.06 Z" fill="#000000" fill-rule="nonzero" fill-opacity="1" /><path clip-path="url(#clip980)" d="M310.535 1191.47 Q303.313 1191.47 299.656 1198.6 Q296.044 1205.68 296.044 1219.94 Q296.044 1234.16 299.656 1241.29 Q303.313 1248.37 310.535 1248.37 Q317.804 1248.37 321.415 1241.29 Q325.072 1234.16 325.072 1219.94 Q325.072 1205.68 321.415 1198.6 Q317.804 1191.47 310.535 1191.47 M310.535 1184.06 Q322.155 1184.06 328.267 1193.28 Q334.424 1202.44 334.424 1219.94 Q334.424 1237.4 328.267 1246.61 Q322.155 1255.78 310.535 1255.78 Q298.915 1255.78 292.757 1246.61 Q286.646 1237.4 286.646 1219.94 Q286.646 1202.44 292.757 1193.28 Q298.915 1184.06 310.535 1184.06 Z" fill="#000000" fill-rule="nonzero" fill-opacity="1" /><path clip-path="url(#clip980)" d="M161.74 926.223 Q154.517 926.223 150.86 933.353 Q147.249 940.436 147.249 954.695 Q147.249 968.908 150.86 976.038 Q154.517 983.121 161.74 983.121 Q169.008 983.121 172.619 976.038 Q176.277 968.908 176.277 954.695 Q176.277 940.436 172.619 933.353 Q169.008 926.223 161.74 926.223 M161.74 918.816 Q173.36 918.816 179.471 928.029 Q185.628 937.195 185.628 954.695 Q185.628 972.149 179.471 981.362 Q173.36 990.528 161.74 990.528 Q150.119 990.528 143.962 981.362 Q137.851 972.149 137.851 954.695 Q137.851 937.195 143.962 928.029 Q150.119 918.816 161.74 918.816 Z" fill="#000000" fill-rule="nonzero" fill-opacity="1" /><path clip-path="url(#clip980)" d="M202.064 977.426 L211.832 977.426 L211.832 989.186 L202.064 989.186 L202.064 977.426 Z" fill="#000000" fill-rule="nonzero" fill-opacity="1" /><path clip-path="url(#clip980)" d="M240.258 981.315 L272.896 981.315 L272.896 989.186 L229.008 989.186 L229.008 981.315 Q234.332 975.806 243.498 966.547 Q252.711 957.241 255.072 954.556 Q259.563 949.51 261.322 946.038 Q263.128 942.519 263.128 939.14 Q263.128 933.63 259.239 930.158 Q255.397 926.686 249.193 926.686 Q244.795 926.686 239.887 928.214 Q235.026 929.741 229.471 932.843 L229.471 923.399 Q235.119 921.13 240.026 919.973 Q244.934 918.816 249.008 918.816 Q259.748 918.816 266.137 924.186 Q272.526 929.556 272.526 938.538 Q272.526 942.797 270.906 946.64 Q269.332 950.436 265.119 955.621 Q263.961 956.964 257.758 963.399 Q251.554 969.788 240.258 981.315 Z" fill="#000000" fill-rule="nonzero" fill-opacity="1" /><path clip-path="url(#clip980)" d="M292.619 920.066 L329.331 920.066 L329.331 927.936 L301.183 927.936 L301.183 944.88 Q303.22 944.186 305.257 943.862 Q307.294 943.491 309.331 943.491 Q320.905 943.491 327.665 949.834 Q334.424 956.177 334.424 967.01 Q334.424 978.167 327.48 984.371 Q320.535 990.528 307.896 990.528 Q303.544 990.528 299.007 989.787 Q294.517 989.047 289.702 987.565 L289.702 978.167 Q293.869 980.436 298.313 981.547 Q302.757 982.658 307.711 982.658 Q315.72 982.658 320.396 978.445 Q325.072 974.232 325.072 967.01 Q325.072 959.788 320.396 955.575 Q315.72 951.362 307.711 951.362 Q303.961 951.362 300.211 952.195 Q296.507 953.028 292.619 954.788 L292.619 920.066 Z" fill="#000000" fill-rule="nonzero" fill-opacity="1" /><path clip-path="url(#clip980)" d="M159.749 660.974 Q152.527 660.974 148.869 668.104 Q145.258 675.187 145.258 689.446 Q145.258 703.659 148.869 710.789 Q152.527 717.872 159.749 717.872 Q167.017 717.872 170.628 710.789 Q174.286 703.659 174.286 689.446 Q174.286 675.187 170.628 668.104 Q167.017 660.974 159.749 660.974 M159.749 653.567 Q171.369 653.567 177.48 662.78 Q183.638 671.946 183.638 689.446 Q183.638 706.9 177.48 716.113 Q171.369 725.279 159.749 725.279 Q148.129 725.279 141.971 716.113 Q135.86 706.9 135.86 689.446 Q135.86 671.946 141.971 662.78 Q148.129 653.567 159.749 653.567 Z" fill="#000000" fill-rule="nonzero" fill-opacity="1" /><path clip-path="url(#clip980)" d="M200.073 712.178 L209.841 712.178 L209.841 723.937 L200.073 723.937 L200.073 712.178 Z" fill="#000000" fill-rule="nonzero" fill-opacity="1" /><path clip-path="url(#clip980)" d="M230.304 654.817 L267.017 654.817 L267.017 662.687 L238.869 662.687 L238.869 679.632 Q240.906 678.937 242.943 678.613 Q244.98 678.243 247.017 678.243 Q258.591 678.243 265.35 684.585 Q272.109 690.928 272.109 701.761 Q272.109 712.918 265.165 719.122 Q258.221 725.279 245.582 725.279 Q241.23 725.279 236.693 724.539 Q232.202 723.798 227.387 722.317 L227.387 712.918 Q231.554 715.187 235.999 716.298 Q240.443 717.409 245.397 717.409 Q253.406 717.409 258.082 713.196 Q262.758 708.983 262.758 701.761 Q262.758 694.539 258.082 690.326 Q253.406 686.113 245.397 686.113 Q241.647 686.113 237.897 686.946 Q234.193 687.78 230.304 689.539 L230.304 654.817 Z" fill="#000000" fill-rule="nonzero" fill-opacity="1" /><path clip-path="url(#clip980)" d="M310.535 660.974 Q303.313 660.974 299.656 668.104 Q296.044 675.187 296.044 689.446 Q296.044 703.659 299.656 710.789 Q303.313 717.872 310.535 717.872 Q317.804 717.872 321.415 710.789 Q325.072 703.659 325.072 689.446 Q325.072 675.187 321.415 668.104 Q317.804 660.974 310.535 660.974 M310.535 653.567 Q322.155 653.567 328.267 662.78 Q334.424 671.946 334.424 689.446 Q334.424 706.9 328.267 716.113 Q322.155 725.279 310.535 725.279 Q298.915 725.279 292.757 716.113 Q286.646 706.9 286.646 689.446 Q286.646 671.946 292.757 662.78 Q298.915 653.567 310.535 653.567 Z" fill="#000000" fill-rule="nonzero" fill-opacity="1" /><path clip-path="url(#clip980)" d="M161.74 395.726 Q154.517 395.726 150.86 402.855 Q147.249 409.938 147.249 424.198 Q147.249 438.41 150.86 445.54 Q154.517 452.623 161.74 452.623 Q169.008 452.623 172.619 445.54 Q176.277 438.41 176.277 424.198 Q176.277 409.938 172.619 402.855 Q169.008 395.726 161.74 395.726 M161.74 388.318 Q173.36 388.318 179.471 397.531 Q185.628 406.698 185.628 424.198 Q185.628 441.651 179.471 450.864 Q173.36 460.031 161.74 460.031 Q150.119 460.031 143.962 450.864 Q137.851 441.651 137.851 424.198 Q137.851 406.698 143.962 397.531 Q150.119 388.318 161.74 388.318 Z" fill="#000000" fill-rule="nonzero" fill-opacity="1" /><path clip-path="url(#clip980)" d="M202.064 446.929 L211.832 446.929 L211.832 458.688 L202.064 458.688 L202.064 446.929 Z" fill="#000000" fill-rule="nonzero" fill-opacity="1" /><path clip-path="url(#clip980)" d="M229.841 389.568 L274.285 389.568 L274.285 393.55 L249.193 458.688 L239.424 458.688 L263.035 397.438 L229.841 397.438 L229.841 389.568 Z" fill="#000000" fill-rule="nonzero" fill-opacity="1" /><path clip-path="url(#clip980)" d="M292.619 389.568 L329.331 389.568 L329.331 397.438 L301.183 397.438 L301.183 414.383 Q303.22 413.688 305.257 413.364 Q307.294 412.994 309.331 412.994 Q320.905 412.994 327.665 419.336 Q334.424 425.679 334.424 436.512 Q334.424 447.67 327.48 453.873 Q320.535 460.031 307.896 460.031 Q303.544 460.031 299.007 459.29 Q294.517 458.549 289.702 457.068 L289.702 447.67 Q293.869 449.938 298.313 451.049 Q302.757 452.16 307.711 452.16 Q315.72 452.16 320.396 447.947 Q325.072 443.735 325.072 436.512 Q325.072 429.29 320.396 425.077 Q315.72 420.864 307.711 420.864 Q303.961 420.864 300.211 421.698 Q296.507 422.531 292.619 424.29 L292.619 389.568 Z" fill="#000000" fill-rule="nonzero" fill-opacity="1" /><path clip-path="url(#clip980)" d="M141.369 185.569 L156.647 185.569 L156.647 132.838 L140.027 136.171 L140.027 127.653 L156.554 124.319 L165.906 124.319 L165.906 185.569 L181.184 185.569 L181.184 193.439 L141.369 193.439 L141.369 185.569 Z" fill="#000000" fill-rule="nonzero" fill-opacity="1" /><path clip-path="url(#clip980)" d="M200.073 181.68 L209.841 181.68 L209.841 193.439 L200.073 193.439 L200.073 181.68 Z" fill="#000000" fill-rule="nonzero" fill-opacity="1" /><path clip-path="url(#clip980)" d="M250.211 130.477 Q242.989 130.477 239.332 137.606 Q235.721 144.69 235.721 158.949 Q235.721 173.162 239.332 180.291 Q242.989 187.375 250.211 187.375 Q257.48 187.375 261.091 180.291 Q264.748 173.162 264.748 158.949 Q264.748 144.69 261.091 137.606 Q257.48 130.477 250.211 130.477 M250.211 123.069 Q261.832 123.069 267.943 132.282 Q274.1 141.449 274.1 158.949 Q274.1 176.402 267.943 185.615 Q261.832 194.782 250.211 194.782 Q238.591 194.782 232.434 185.615 Q226.323 176.402 226.323 158.949 Q226.323 141.449 232.434 132.282 Q238.591 123.069 250.211 123.069 Z" fill="#000000" fill-rule="nonzero" fill-opacity="1" /><path clip-path="url(#clip980)" d="M310.535 130.477 Q303.313 130.477 299.656 137.606 Q296.044 144.69 296.044 158.949 Q296.044 173.162 299.656 180.291 Q303.313 187.375 310.535 187.375 Q317.804 187.375 321.415 180.291 Q325.072 173.162 325.072 158.949 Q325.072 144.69 321.415 137.606 Q317.804 130.477 310.535 130.477 M310.535 123.069 Q322.155 123.069 328.267 132.282 Q334.424 141.449 334.424 158.949 Q334.424 176.402 328.267 185.615 Q322.155 194.782 310.535 194.782 Q298.915 194.782 292.757 185.615 Q286.646 176.402 286.646 158.949 Q286.646 141.449 292.757 132.282 Q298.915 123.069 310.535 123.069 Z" fill="#000000" fill-rule="nonzero" fill-opacity="1" /><path clip-path="url(#clip980)" d="M19.2171 1035.51 L53.615 1048.19 L53.615 1022.78 L19.2171 1035.51 M10.0042 1040.79 L10.0042 1030.19 L79.1242 1003.84 L79.1242 1013.57 L61.3928 1019.86 L61.3928 1051.02 L79.1242 1057.32 L79.1242 1067.18 L10.0042 1040.79 Z" fill="#000000" fill-rule="nonzero" fill-opacity="1" /><path clip-path="url(#clip980)" d="M58.6613 995.001 L27.2726 995.001 L27.2726 986.482 L58.3372 986.482 Q65.6983 986.482 69.402 983.612 Q73.0594 980.742 73.0594 975.001 Q73.0594 968.103 68.6613 964.121 Q64.2631 960.094 56.6706 960.094 L27.2726 960.094 L27.2726 951.575 L79.1242 951.575 L79.1242 960.094 L71.1612 960.094 Q75.8834 963.195 78.1982 967.316 Q80.4667 971.39 80.4667 976.806 Q80.4667 985.742 74.9112 990.371 Q69.3557 995.001 58.6613 995.001 M26.0226 973.566 L26.0226 973.566 Z" fill="#000000" fill-rule="nonzero" fill-opacity="1" /><path clip-path="url(#clip980)" d="M12.5504 925.603 L27.2726 925.603 L27.2726 908.057 L33.8929 908.057 L33.8929 925.603 L62.0409 925.603 Q68.3835 925.603 70.189 923.89 Q71.9946 922.131 71.9946 916.807 L71.9946 908.057 L79.1242 908.057 L79.1242 916.807 Q79.1242 926.668 75.4668 930.418 Q71.7631 934.168 62.0409 934.168 L33.8929 934.168 L33.8929 940.418 L27.2726 940.418 L27.2726 934.168 L12.5504 934.168 L12.5504 925.603 Z" fill="#000000" fill-rule="nonzero" fill-opacity="1" /><path clip-path="url(#clip980)" d="M33.2448 876.761 Q33.2448 883.613 38.6151 887.594 Q43.9392 891.575 53.2447 891.575 Q62.5502 891.575 67.9205 887.64 Q73.2446 883.659 73.2446 876.761 Q73.2446 869.955 67.8742 865.974 Q62.5039 861.992 53.2447 861.992 Q44.0318 861.992 38.6614 865.974 Q33.2448 869.955 33.2448 876.761 M26.0226 876.761 Q26.0226 865.65 33.2448 859.307 Q40.467 852.965 53.2447 852.965 Q65.9761 852.965 73.2446 859.307 Q80.4667 865.65 80.4667 876.761 Q80.4667 887.918 73.2446 894.261 Q65.9761 900.557 53.2447 900.557 Q40.467 900.557 33.2448 894.261 Q26.0226 887.918 26.0226 876.761 Z" fill="#000000" fill-rule="nonzero" fill-opacity="1" /><path clip-path="url(#clip980)" d="M29.2633 801.53 L37.2262 801.53 Q35.2355 805.141 34.2633 808.798 Q33.2448 812.409 33.2448 816.113 Q33.2448 824.4 38.5225 828.983 Q43.754 833.566 53.2447 833.566 Q62.7354 833.566 68.0131 828.983 Q73.2446 824.4 73.2446 816.113 Q73.2446 812.409 72.2723 808.798 Q71.2538 805.141 69.2631 801.53 L77.1334 801.53 Q78.8001 805.094 79.6334 808.937 Q80.4667 812.733 80.4667 817.039 Q80.4667 828.752 73.1057 835.65 Q65.7446 842.548 53.2447 842.548 Q40.5595 842.548 33.2911 835.604 Q26.0226 828.613 26.0226 816.483 Q26.0226 812.548 26.8559 808.798 Q27.643 805.048 29.2633 801.53 Z" fill="#000000" fill-rule="nonzero" fill-opacity="1" /><path clip-path="url(#clip980)" d="M33.2448 766.622 Q33.2448 773.474 38.6151 777.456 Q43.9392 781.437 53.2447 781.437 Q62.5502 781.437 67.9205 777.502 Q73.2446 773.521 73.2446 766.622 Q73.2446 759.817 67.8742 755.835 Q62.5039 751.854 53.2447 751.854 Q44.0318 751.854 38.6614 755.835 Q33.2448 759.817 33.2448 766.622 M26.0226 766.622 Q26.0226 755.511 33.2448 749.169 Q40.467 742.826 53.2447 742.826 Q65.9761 742.826 73.2446 749.169 Q80.4667 755.511 80.4667 766.622 Q80.4667 777.78 73.2446 784.122 Q65.9761 790.419 53.2447 790.419 Q40.467 790.419 33.2448 784.122 Q26.0226 777.78 26.0226 766.622 Z" fill="#000000" fill-rule="nonzero" fill-opacity="1" /><path clip-path="url(#clip980)" d="M35.2355 698.66 Q34.4022 700.095 34.0318 701.808 Q33.6151 703.475 33.6151 705.512 Q33.6151 712.734 38.3373 716.623 Q43.0132 720.465 51.8095 720.465 L79.1242 720.465 L79.1242 729.03 L27.2726 729.03 L27.2726 720.465 L35.3281 720.465 Q30.6059 717.78 28.3374 713.475 Q26.0226 709.169 26.0226 703.012 Q26.0226 702.132 26.1615 701.067 Q26.2541 700.002 26.4856 698.706 L35.2355 698.66 Z" fill="#000000" fill-rule="nonzero" fill-opacity="1" /><path clip-path="url(#clip980)" d="M35.2355 661.345 Q34.4022 662.78 34.0318 664.493 Q33.6151 666.16 33.6151 668.197 Q33.6151 675.419 38.3373 679.308 Q43.0132 683.151 51.8095 683.151 L79.1242 683.151 L79.1242 691.715 L27.2726 691.715 L27.2726 683.151 L35.3281 683.151 Q30.6059 680.465 28.3374 676.16 Q26.0226 671.854 26.0226 665.697 Q26.0226 664.817 26.1615 663.753 Q26.2541 662.688 26.4856 661.391 L35.2355 661.345 Z" fill="#000000" fill-rule="nonzero" fill-opacity="1" /><path clip-path="url(#clip980)" d="M51.0688 610.142 L55.2354 610.142 L55.2354 649.308 Q64.0316 648.753 68.6613 644.03 Q73.2446 639.262 73.2446 630.79 Q73.2446 625.882 72.0409 621.299 Q70.8372 616.669 68.4298 612.132 L76.4853 612.132 Q78.4297 616.716 79.4482 621.531 Q80.4667 626.345 80.4667 631.299 Q80.4667 643.706 73.2446 650.975 Q66.0224 658.197 53.7076 658.197 Q40.9762 658.197 33.5225 651.345 Q26.0226 644.447 26.0226 632.781 Q26.0226 622.318 32.7818 616.253 Q39.4947 610.142 51.0688 610.142 M48.5688 618.66 Q41.5781 618.753 37.4114 622.595 Q33.2448 626.392 33.2448 632.688 Q33.2448 639.818 37.2725 644.123 Q41.3003 648.382 48.6151 649.03 L48.5688 618.66 Z" fill="#000000" fill-rule="nonzero" fill-opacity="1" /><path clip-path="url(#clip980)" d="M7.08751 596.16 L7.08751 587.642 L79.1242 587.642 L79.1242 596.16 L7.08751 596.16 Z" fill="#000000" fill-rule="nonzero" fill-opacity="1" /><path clip-path="url(#clip980)" d="M53.0595 546.253 Q53.0595 556.577 55.4206 560.559 Q57.7817 564.54 63.4761 564.54 Q68.0131 564.54 70.6983 561.577 Q73.3372 558.568 73.3372 553.429 Q73.3372 546.346 68.3372 542.087 Q63.2909 537.781 54.9576 537.781 L53.0595 537.781 L53.0595 546.253 M49.541 529.263 L79.1242 529.263 L79.1242 537.781 L71.2538 537.781 Q75.976 540.698 78.2445 545.05 Q80.4667 549.401 80.4667 555.698 Q80.4667 563.661 76.0223 568.383 Q71.5316 573.059 64.0316 573.059 Q55.2817 573.059 50.8373 567.225 Q46.3929 561.346 46.3929 549.725 L46.3929 537.781 L45.5595 537.781 Q39.6799 537.781 36.4855 541.67 Q33.2448 545.512 33.2448 552.503 Q33.2448 556.948 34.3096 561.161 Q35.3744 565.373 37.504 569.262 L29.6337 569.262 Q27.8281 564.586 26.9485 560.188 Q26.0226 555.79 26.0226 551.624 Q26.0226 540.374 31.8559 534.818 Q37.6892 529.263 49.541 529.263 Z" fill="#000000" fill-rule="nonzero" fill-opacity="1" /><path clip-path="url(#clip980)" d="M12.5504 503.29 L27.2726 503.29 L27.2726 485.744 L33.8929 485.744 L33.8929 503.29 L62.0409 503.29 Q68.3835 503.29 70.189 501.578 Q71.9946 499.818 71.9946 494.494 L71.9946 485.744 L79.1242 485.744 L79.1242 494.494 Q79.1242 504.355 75.4668 508.105 Q71.7631 511.855 62.0409 511.855 L33.8929 511.855 L33.8929 518.105 L27.2726 518.105 L27.2726 511.855 L12.5504 511.855 L12.5504 503.29 Z" fill="#000000" fill-rule="nonzero" fill-opacity="1" /><path clip-path="url(#clip980)" d="M27.2726 474.541 L27.2726 466.022 L79.1242 466.022 L79.1242 474.541 L27.2726 474.541 M7.08751 474.541 L7.08751 466.022 L17.8745 466.022 L17.8745 474.541 L7.08751 474.541 Z" fill="#000000" fill-rule="nonzero" fill-opacity="1" /><path clip-path="url(#clip980)" d="M33.2448 428.106 Q33.2448 434.958 38.6151 438.939 Q43.9392 442.92 53.2447 442.92 Q62.5502 442.92 67.9205 438.985 Q73.2446 435.004 73.2446 428.106 Q73.2446 421.3 67.8742 417.319 Q62.5039 413.337 53.2447 413.337 Q44.0318 413.337 38.6614 417.319 Q33.2448 421.3 33.2448 428.106 M26.0226 428.106 Q26.0226 416.995 33.2448 410.652 Q40.467 404.31 53.2447 404.31 Q65.9761 404.31 73.2446 410.652 Q80.4667 416.995 80.4667 428.106 Q80.4667 439.263 73.2446 445.606 Q65.9761 451.902 53.2447 451.902 Q40.467 451.902 33.2448 445.606 Q26.0226 439.263 26.0226 428.106 Z" fill="#000000" fill-rule="nonzero" fill-opacity="1" /><path clip-path="url(#clip980)" d="M47.828 347.088 L79.1242 347.088 L79.1242 355.606 L48.1058 355.606 Q40.7447 355.606 37.0873 358.476 Q33.43 361.347 33.43 367.087 Q33.43 373.986 37.8281 377.967 Q42.2262 381.949 49.8188 381.949 L79.1242 381.949 L79.1242 390.513 L27.2726 390.513 L27.2726 381.949 L35.3281 381.949 Q30.6522 378.893 28.3374 374.773 Q26.0226 370.606 26.0226 365.189 Q26.0226 356.254 31.5781 351.671 Q37.0873 347.088 47.828 347.088 Z" fill="#000000" fill-rule="nonzero" fill-opacity="1" /><polyline clip-path="url(#clip982)" style="stroke:#009af9; stroke-linecap:round; stroke-linejoin:round; stroke-width:4; stroke-opacity:1; fill:none" points="424.299,158.879 442.258,225.427 460.216,285.407 478.174,337.858 496.133,386.677 514.091,434.062 532.05,478.117 550.008,521.14 567.966,562.413 585.925,599.085 603.883,633.984 621.842,666.223 639.8,695.578 657.759,722.485 675.717,748.109 693.675,771.303 711.634,792.739 729.592,813.944 747.551,833.648 765.509,853.489 783.467,869.561 801.426,885.367 819.384,902.697 837.343,919.049 855.301,936.455 873.259,953.175 891.218,967.899 909.176,981.758 927.135,997.667 945.093,1011.44 963.052,1026.32 981.01,1040.24 998.968,1052.21 1016.93,1063.82 1034.89,1076.09 1052.84,1085.34 1070.8,1091.99 1088.76,1098.25 1106.72,1104.81 1124.68,1109.06 1142.64,1111.21 1160.59,1113.79 1178.55,1116.44 1196.51,1119.03 1214.47,1118.98 1232.43,1120.55 1250.39,1120.92 1268.34,1119.82 1286.3,1118.5 1304.26,1119.45 1322.22,1120.27 1340.18,1123.6 1358.14,1126.61 1376.1,1129.02 1394.05,1130.94 1412.01,1134.15 1429.97,1138.77 1447.93,1145.29 1465.89,1151.04 1483.85,1157.42 1501.8,1164.39 1519.76,1172.59 1537.72,1178.15 1555.68,1183.91 1573.64,1189.72 1591.6,1195.94 1609.55,1201.25 1627.51,1206.77 1645.47,1208.91 1663.43,1211.67 1681.39,1213.96 1699.35,1216.9 1717.3,1221.37 1735.26,1225.7 1753.22,1230.41 1771.18,1234.46 1789.14,1238.63 1807.1,1241.15 1825.06,1243.97 1843.01,1244.82 1860.97,1246.21 1878.93,1246.91 1896.89,1248.01 1914.85,1250.52 1932.81,1253.87 1950.76,1254.89 1968.72,1255.38 1986.68,1254.74 2004.64,1253.55 2022.6,1253.03 2040.56,1251.91 2058.51,1249.11 2076.47,1249.45 2094.43,1250.03 2112.39,1252.63 2130.35,1253.92 2148.31,1253.37 2166.27,1251.74 2184.22,1249.31 2202.18,1248.21 2220.14,1247.05 "/>
<polyline clip-path="url(#clip982)" style="stroke:#e26f46; stroke-linecap:round; stroke-linejoin:round; stroke-width:4; stroke-opacity:1; fill:none" points="424.299,158.879 442.258,213.554 460.216,264.089 478.174,313.156 496.133,361.081 514.091,406.715 532.05,448.598 550.008,486.902 567.966,522.216 585.925,555.509 603.883,587.014 621.842,615.803 639.8,641.947 657.759,665.15 675.717,688.248 693.675,709.641 711.634,728.869 729.592,747.959 747.551,766.547 765.509,782.935 783.467,798.679 801.426,814.935 819.384,829.855 837.343,845.311 855.301,860.03 873.259,873.608 891.218,885.932 909.176,896.6 927.135,907.963 945.093,920.589 963.052,931.269 981.01,944.341 998.968,955.973 1016.93,966.579 1034.89,977.182 1052.84,985.414 1070.8,991.718 1088.76,995.077 1106.72,998.351 1124.68,1003.33 1142.64,1009.59 1160.59,1012.29 1178.55,1014.14 1196.51,1015.51 1214.47,1015.18 1232.43,1017.47 1250.39,1018.23 1268.34,1019.07 1286.3,1021.83 1304.26,1024.82 1322.22,1026.59 1340.18,1028.48 1358.14,1031.39 1376.1,1030.2 1394.05,1027.3 1412.01,1023.88 1429.97,1022.19 1447.93,1022.05 1465.89,1022.53 1483.85,1025.32 1501.8,1025.92 1519.76,1026.53 1537.72,1025.27 1555.68,1021.8 1573.64,1019.53 1591.6,1019.89 1609.55,1019.61 1627.51,1019.53 1645.47,1018.86 1663.43,1019.58 1681.39,1019.63 1699.35,1018.07 1717.3,1017.69 1735.26,1018.85 1753.22,1021.17 1771.18,1023.3 1789.14,1025.6 1807.1,1028.06 1825.06,1030.99 1843.01,1034.01 1860.97,1037.57 1878.93,1040.99 1896.89,1043.67 1914.85,1045.66 1932.81,1045.79 1950.76,1044.99 1968.72,1044.76 1986.68,1045.03 2004.64,1044.37 2022.6,1044.94 2040.56,1046.85 2058.51,1047.18 2076.47,1047.7 2094.43,1049.85 2112.39,1050.42 2130.35,1052.15 2148.31,1054.91 2166.27,1056.2 2184.22,1058.25 2202.18,1060.45 2220.14,1062.58 "/>
<polyline clip-path="url(#clip982)" style="stroke:#3da44d; stroke-linecap:round; stroke-linejoin:round; stroke-width:4; stroke-opacity:1; fill:none" points="424.299,158.879 442.258,220.812 460.216,277.215 478.174,329.363 496.133,379.723 514.091,426.855 532.05,468.827 550.008,507.487 567.966,545.083 585.925,579.624 603.883,611.17 621.842,640.072 639.8,667.434 657.759,691.381 675.717,713.617 693.675,733.545 711.634,752.422 729.592,770.138 747.551,785.726 765.509,799.427 783.467,813.056 801.426,826.402 819.384,836.135 837.343,844.16 855.301,855.822 873.259,865.373 891.218,873.652 909.176,881.951 927.135,889.777 945.093,898.479 963.052,907.421 981.01,915.932 998.968,924.33 1016.93,933.449 1034.89,944.698 1052.84,954.499 1070.8,960.668 1088.76,965.848 1106.72,972.203 1124.68,979.178 1142.64,984.298 1160.59,988.659 1178.55,994.359 1196.51,998.864 1214.47,1005.01 1232.43,1011.05 1250.39,1017.32 1268.34,1023.56 1286.3,1030.31 1304.26,1035.98 1322.22,1042.35 1340.18,1048.06 1358.14,1053.17 1376.1,1057.84 1394.05,1061.84 1412.01,1066.21 1429.97,1071.36 1447.93,1075.21 1465.89,1078.01 1483.85,1080.12 1501.8,1081.96 1519.76,1084.73 1537.72,1087.37 1555.68,1090.61 1573.64,1094.69 1591.6,1098.29 1609.55,1101.18 1627.51,1102.53 1645.47,1103.67 1663.43,1104.31 1681.39,1105.78 1699.35,1106.05 1717.3,1105.16 1735.26,1104.3 1753.22,1103.93 1771.18,1103.61 1789.14,1103.48 1807.1,1102.44 1825.06,1101.49 1843.01,1101.31 1860.97,1101.54 1878.93,1100.17 1896.89,1097.52 1914.85,1095.26 1932.81,1092.45 1950.76,1090.18 1968.72,1087.89 1986.68,1085.41 2004.64,1082.81 2022.6,1081.43 2040.56,1079.66 2058.51,1079.14 2076.47,1079.74 2094.43,1081.14 2112.39,1082.44 2130.35,1084.85 2148.31,1086.1 2166.27,1084.86 2184.22,1082.13 2202.18,1080.96 2220.14,1077.9 "/>
<polyline clip-path="url(#clip982)" style="stroke:#c271d2; stroke-linecap:round; stroke-linejoin:round; stroke-width:4; stroke-opacity:1; fill:none" points="424.299,158.879 442.258,212.5 460.216,262.535 478.174,309.209 496.133,353.054 514.091,393.104 532.05,430.894 550.008,466.396 567.966,500.137 585.925,533.176 603.883,562.968 621.842,590.75 639.8,616.434 657.759,642.082 675.717,666.006 693.675,687.908 711.634,708.894 729.592,728.611 747.551,747.367 765.509,765.262 783.467,782.502 801.426,797.909 819.384,813.348 837.343,827.257 855.301,839.769 873.259,851.709 891.218,862.122 909.176,871.736 927.135,880.63 945.093,888.902 963.052,898.062 981.01,906.592 998.968,915.677 1016.93,923.212 1034.89,929.471 1052.84,935.133 1070.8,940.331 1088.76,946.421 1106.72,952.533 1124.68,956.916 1142.64,960.838 1160.59,965.923 1178.55,971.967 1196.51,977.248 1214.47,981.978 1232.43,987.216 1250.39,991.79 1268.34,996.033 1286.3,1000.59 1304.26,1006.79 1322.22,1013.01 1340.18,1018.47 1358.14,1022.86 1376.1,1027.06 1394.05,1028.96 1412.01,1029.47 1429.97,1029.74 1447.93,1030.48 1465.89,1031.47 1483.85,1032.31 1501.8,1033.12 1519.76,1033.48 1537.72,1033.95 1555.68,1034.52 1573.64,1035.93 1591.6,1037.02 1609.55,1037.47 1627.51,1038.69 1645.47,1039.52 1663.43,1039.86 1681.39,1041.56 1699.35,1042.83 1717.3,1045.46 1735.26,1047.74 1753.22,1050.68 1771.18,1053.44 1789.14,1055.2 1807.1,1055.58 1825.06,1055.86 1843.01,1056.03 1860.97,1057.37 1878.93,1058.18 1896.89,1059.58 1914.85,1063.83 1932.81,1068.49 1950.76,1071.79 1968.72,1074.89 1986.68,1079.95 2004.64,1084.66 2022.6,1089.17 2040.56,1092.68 2058.51,1095.83 2076.47,1098.35 2094.43,1098.35 2112.39,1098.03 2130.35,1098.15 2148.31,1098.52 2166.27,1098.68 2184.22,1099.8 2202.18,1101.64 2220.14,1103.47 "/>
<path clip-path="url(#clip980)" d="M1699.7 683.127 L2210.56 683.127 L2210.56 164.727 L1699.7 164.727  Z" fill="#ffffff" fill-rule="evenodd" fill-opacity="1"/>
<polyline clip-path="url(#clip980)" style="stroke:#000000; stroke-linecap:round; stroke-linejoin:round; stroke-width:4; stroke-opacity:1; fill:none" points="1699.7,683.127 2210.56,683.127 2210.56,164.727 1699.7,164.727 1699.7,683.127 "/>
<polyline clip-path="url(#clip980)" style="stroke:#009af9; stroke-linecap:round; stroke-linejoin:round; stroke-width:8; stroke-opacity:1; fill:none" points="1720.85,268.407 1847.75,268.407 "/>
<path clip-path="url(#clip980)" d="M1924.64 239.171 L1924.64 249.033 Q1919.92 244.634 1914.55 242.458 Q1909.23 240.283 1903.21 240.283 Q1891.36 240.283 1885.06 247.551 Q1878.77 254.773 1878.77 268.477 Q1878.77 282.134 1885.06 289.403 Q1891.36 296.625 1903.21 296.625 Q1909.23 296.625 1914.55 294.449 Q1919.92 292.273 1924.64 287.875 L1924.64 297.643 Q1919.74 300.977 1914.23 302.643 Q1908.77 304.31 1902.65 304.31 Q1886.96 304.31 1877.93 294.727 Q1868.9 285.097 1868.9 268.477 Q1868.9 251.81 1877.93 242.227 Q1886.96 232.597 1902.65 232.597 Q1908.86 232.597 1914.32 234.264 Q1919.83 235.884 1924.64 239.171 Z" fill="#000000" fill-rule="nonzero" fill-opacity="1" /><path clip-path="url(#clip980)" d="M1981.82 271.671 L1981.82 302.967 L1973.3 302.967 L1973.3 271.949 Q1973.3 264.588 1970.43 260.931 Q1967.56 257.273 1961.82 257.273 Q1954.92 257.273 1950.94 261.671 Q1946.96 266.069 1946.96 273.662 L1946.96 302.967 L1938.39 302.967 L1938.39 230.931 L1946.96 230.931 L1946.96 259.171 Q1950.01 254.495 1954.14 252.181 Q1958.3 249.866 1963.72 249.866 Q1972.65 249.866 1977.24 255.421 Q1981.82 260.931 1981.82 271.671 Z" fill="#000000" fill-rule="nonzero" fill-opacity="1" /><path clip-path="url(#clip980)" d="M2022.38 276.903 Q2012.05 276.903 2008.07 279.264 Q2004.09 281.625 2004.09 287.319 Q2004.09 291.856 2007.05 294.542 Q2010.06 297.18 2015.2 297.18 Q2022.28 297.18 2026.54 292.18 Q2030.85 287.134 2030.85 278.801 L2030.85 276.903 L2022.38 276.903 M2039.37 273.384 L2039.37 302.967 L2030.85 302.967 L2030.85 295.097 Q2027.93 299.819 2023.58 302.088 Q2019.23 304.31 2012.93 304.31 Q2004.97 304.31 2000.25 299.866 Q1995.57 295.375 1995.57 287.875 Q1995.57 279.125 2001.4 274.681 Q2007.28 270.236 2018.9 270.236 L2030.85 270.236 L2030.85 269.403 Q2030.85 263.523 2026.96 260.329 Q2023.12 257.088 2016.13 257.088 Q2011.68 257.088 2007.47 258.153 Q2003.26 259.218 1999.37 261.347 L1999.37 253.477 Q2004.04 251.671 2008.44 250.792 Q2012.84 249.866 2017.01 249.866 Q2028.26 249.866 2033.81 255.699 Q2039.37 261.532 2039.37 273.384 Z" fill="#000000" fill-rule="nonzero" fill-opacity="1" /><path clip-path="url(#clip980)" d="M2056.91 251.116 L2065.43 251.116 L2065.43 302.967 L2056.91 302.967 L2056.91 251.116 M2056.91 230.931 L2065.43 230.931 L2065.43 241.718 L2056.91 241.718 L2056.91 230.931 Z" fill="#000000" fill-rule="nonzero" fill-opacity="1" /><path clip-path="url(#clip980)" d="M2126.36 271.671 L2126.36 302.967 L2117.84 302.967 L2117.84 271.949 Q2117.84 264.588 2114.97 260.931 Q2112.1 257.273 2106.36 257.273 Q2099.46 257.273 2095.48 261.671 Q2091.5 266.069 2091.5 273.662 L2091.5 302.967 L2082.93 302.967 L2082.93 251.116 L2091.5 251.116 L2091.5 259.171 Q2094.55 254.495 2098.67 252.181 Q2102.84 249.866 2108.25 249.866 Q2117.19 249.866 2121.77 255.421 Q2126.36 260.931 2126.36 271.671 Z" fill="#000000" fill-rule="nonzero" fill-opacity="1" /><path clip-path="url(#clip980)" d="M2146.17 295.097 L2161.45 295.097 L2161.45 242.366 L2144.83 245.699 L2144.83 237.181 L2161.36 233.847 L2170.71 233.847 L2170.71 295.097 L2185.99 295.097 L2185.99 302.967 L2146.17 302.967 L2146.17 295.097 Z" fill="#000000" fill-rule="nonzero" fill-opacity="1" /><polyline clip-path="url(#clip980)" style="stroke:#e26f46; stroke-linecap:round; stroke-linejoin:round; stroke-width:8; stroke-opacity:1; fill:none" points="1720.85,372.087 1847.75,372.087 "/>
<path clip-path="url(#clip980)" d="M1924.64 342.851 L1924.64 352.713 Q1919.92 348.314 1914.55 346.138 Q1909.23 343.963 1903.21 343.963 Q1891.36 343.963 1885.06 351.231 Q1878.77 358.453 1878.77 372.157 Q1878.77 385.814 1885.06 393.083 Q1891.36 400.305 1903.21 400.305 Q1909.23 400.305 1914.55 398.129 Q1919.92 395.953 1924.64 391.555 L1924.64 401.323 Q1919.74 404.657 1914.23 406.323 Q1908.77 407.99 1902.65 407.99 Q1886.96 407.99 1877.93 398.407 Q1868.9 388.777 1868.9 372.157 Q1868.9 355.49 1877.93 345.907 Q1886.96 336.277 1902.65 336.277 Q1908.86 336.277 1914.32 337.944 Q1919.83 339.564 1924.64 342.851 Z" fill="#000000" fill-rule="nonzero" fill-opacity="1" /><path clip-path="url(#clip980)" d="M1981.82 375.351 L1981.82 406.647 L1973.3 406.647 L1973.3 375.629 Q1973.3 368.268 1970.43 364.611 Q1967.56 360.953 1961.82 360.953 Q1954.92 360.953 1950.94 365.351 Q1946.96 369.749 1946.96 377.342 L1946.96 406.647 L1938.39 406.647 L1938.39 334.611 L1946.96 334.611 L1946.96 362.851 Q1950.01 358.175 1954.14 355.861 Q1958.3 353.546 1963.72 353.546 Q1972.65 353.546 1977.24 359.101 Q1981.82 364.611 1981.82 375.351 Z" fill="#000000" fill-rule="nonzero" fill-opacity="1" /><path clip-path="url(#clip980)" d="M2022.38 380.583 Q2012.05 380.583 2008.07 382.944 Q2004.09 385.305 2004.09 390.999 Q2004.09 395.536 2007.05 398.222 Q2010.06 400.86 2015.2 400.86 Q2022.28 400.86 2026.54 395.86 Q2030.85 390.814 2030.85 382.481 L2030.85 380.583 L2022.38 380.583 M2039.37 377.064 L2039.37 406.647 L2030.85 406.647 L2030.85 398.777 Q2027.93 403.499 2023.58 405.768 Q2019.23 407.99 2012.93 407.99 Q2004.97 407.99 2000.25 403.546 Q1995.57 399.055 1995.57 391.555 Q1995.57 382.805 2001.4 378.361 Q2007.28 373.916 2018.9 373.916 L2030.85 373.916 L2030.85 373.083 Q2030.85 367.203 2026.96 364.009 Q2023.12 360.768 2016.13 360.768 Q2011.68 360.768 2007.47 361.833 Q2003.26 362.898 1999.37 365.027 L1999.37 357.157 Q2004.04 355.351 2008.44 354.472 Q2012.84 353.546 2017.01 353.546 Q2028.26 353.546 2033.81 359.379 Q2039.37 365.212 2039.37 377.064 Z" fill="#000000" fill-rule="nonzero" fill-opacity="1" /><path clip-path="url(#clip980)" d="M2056.91 354.796 L2065.43 354.796 L2065.43 406.647 L2056.91 406.647 L2056.91 354.796 M2056.91 334.611 L2065.43 334.611 L2065.43 345.398 L2056.91 345.398 L2056.91 334.611 Z" fill="#000000" fill-rule="nonzero" fill-opacity="1" /><path clip-path="url(#clip980)" d="M2126.36 375.351 L2126.36 406.647 L2117.84 406.647 L2117.84 375.629 Q2117.84 368.268 2114.97 364.611 Q2112.1 360.953 2106.36 360.953 Q2099.46 360.953 2095.48 365.351 Q2091.5 369.749 2091.5 377.342 L2091.5 406.647 L2082.93 406.647 L2082.93 354.796 L2091.5 354.796 L2091.5 362.851 Q2094.55 358.175 2098.67 355.861 Q2102.84 353.546 2108.25 353.546 Q2117.19 353.546 2121.77 359.101 Q2126.36 364.611 2126.36 375.351 Z" fill="#000000" fill-rule="nonzero" fill-opacity="1" /><path clip-path="url(#clip980)" d="M2152.61 398.777 L2185.25 398.777 L2185.25 406.647 L2141.36 406.647 L2141.36 398.777 Q2146.68 393.268 2155.85 384.009 Q2165.06 374.703 2167.42 372.018 Q2171.91 366.972 2173.67 363.5 Q2175.48 359.981 2175.48 356.601 Q2175.48 351.092 2171.59 347.62 Q2167.75 344.148 2161.54 344.148 Q2157.14 344.148 2152.24 345.676 Q2147.37 347.203 2141.82 350.305 L2141.82 340.861 Q2147.47 338.592 2152.37 337.435 Q2157.28 336.277 2161.36 336.277 Q2172.1 336.277 2178.49 341.648 Q2184.87 347.018 2184.87 356 Q2184.87 360.259 2183.25 364.101 Q2181.68 367.898 2177.47 373.083 Q2176.31 374.425 2170.11 380.861 Q2163.9 387.249 2152.61 398.777 Z" fill="#000000" fill-rule="nonzero" fill-opacity="1" /><polyline clip-path="url(#clip980)" style="stroke:#3da44d; stroke-linecap:round; stroke-linejoin:round; stroke-width:8; stroke-opacity:1; fill:none" points="1720.85,475.767 1847.75,475.767 "/>
<path clip-path="url(#clip980)" d="M1924.64 446.531 L1924.64 456.393 Q1919.92 451.994 1914.55 449.818 Q1909.23 447.643 1903.21 447.643 Q1891.36 447.643 1885.06 454.911 Q1878.77 462.133 1878.77 475.837 Q1878.77 489.494 1885.06 496.763 Q1891.36 503.985 1903.21 503.985 Q1909.23 503.985 1914.55 501.809 Q1919.92 499.633 1924.64 495.235 L1924.64 505.003 Q1919.74 508.337 1914.23 510.003 Q1908.77 511.67 1902.65 511.67 Q1886.96 511.67 1877.93 502.087 Q1868.9 492.457 1868.9 475.837 Q1868.9 459.17 1877.93 449.587 Q1886.96 439.957 1902.65 439.957 Q1908.86 439.957 1914.32 441.624 Q1919.83 443.244 1924.64 446.531 Z" fill="#000000" fill-rule="nonzero" fill-opacity="1" /><path clip-path="url(#clip980)" d="M1981.82 479.031 L1981.82 510.327 L1973.3 510.327 L1973.3 479.309 Q1973.3 471.948 1970.43 468.291 Q1967.56 464.633 1961.82 464.633 Q1954.92 464.633 1950.94 469.031 Q1946.96 473.429 1946.96 481.022 L1946.96 510.327 L1938.39 510.327 L1938.39 438.291 L1946.96 438.291 L1946.96 466.531 Q1950.01 461.855 1954.14 459.541 Q1958.3 457.226 1963.72 457.226 Q1972.65 457.226 1977.24 462.781 Q1981.82 468.291 1981.82 479.031 Z" fill="#000000" fill-rule="nonzero" fill-opacity="1" /><path clip-path="url(#clip980)" d="M2022.38 484.263 Q2012.05 484.263 2008.07 486.624 Q2004.09 488.985 2004.09 494.679 Q2004.09 499.216 2007.05 501.902 Q2010.06 504.54 2015.2 504.54 Q2022.28 504.54 2026.54 499.54 Q2030.85 494.494 2030.85 486.161 L2030.85 484.263 L2022.38 484.263 M2039.37 480.744 L2039.37 510.327 L2030.85 510.327 L2030.85 502.457 Q2027.93 507.179 2023.58 509.448 Q2019.23 511.67 2012.93 511.67 Q2004.97 511.67 2000.25 507.226 Q1995.57 502.735 1995.57 495.235 Q1995.57 486.485 2001.4 482.041 Q2007.28 477.596 2018.9 477.596 L2030.85 477.596 L2030.85 476.763 Q2030.85 470.883 2026.96 467.689 Q2023.12 464.448 2016.13 464.448 Q2011.68 464.448 2007.47 465.513 Q2003.26 466.578 1999.37 468.707 L1999.37 460.837 Q2004.04 459.031 2008.44 458.152 Q2012.84 457.226 2017.01 457.226 Q2028.26 457.226 2033.81 463.059 Q2039.37 468.892 2039.37 480.744 Z" fill="#000000" fill-rule="nonzero" fill-opacity="1" /><path clip-path="url(#clip980)" d="M2056.91 458.476 L2065.43 458.476 L2065.43 510.327 L2056.91 510.327 L2056.91 458.476 M2056.91 438.291 L2065.43 438.291 L2065.43 449.078 L2056.91 449.078 L2056.91 438.291 Z" fill="#000000" fill-rule="nonzero" fill-opacity="1" /><path clip-path="url(#clip980)" d="M2126.36 479.031 L2126.36 510.327 L2117.84 510.327 L2117.84 479.309 Q2117.84 471.948 2114.97 468.291 Q2112.1 464.633 2106.36 464.633 Q2099.46 464.633 2095.48 469.031 Q2091.5 473.429 2091.5 481.022 L2091.5 510.327 L2082.93 510.327 L2082.93 458.476 L2091.5 458.476 L2091.5 466.531 Q2094.55 461.855 2098.67 459.541 Q2102.84 457.226 2108.25 457.226 Q2117.19 457.226 2121.77 462.781 Q2126.36 468.291 2126.36 479.031 Z" fill="#000000" fill-rule="nonzero" fill-opacity="1" /><path clip-path="url(#clip980)" d="M2172.88 473.059 Q2179.6 474.494 2183.35 479.031 Q2187.14 483.568 2187.14 490.235 Q2187.14 500.466 2180.11 506.068 Q2173.07 511.67 2160.11 511.67 Q2155.75 511.67 2151.12 510.79 Q2146.54 509.957 2141.63 508.244 L2141.63 499.216 Q2145.52 501.485 2150.15 502.642 Q2154.78 503.8 2159.83 503.8 Q2168.62 503.8 2173.21 500.327 Q2177.84 496.855 2177.84 490.235 Q2177.84 484.124 2173.53 480.698 Q2169.27 477.226 2161.63 477.226 L2153.58 477.226 L2153.58 469.541 L2162 469.541 Q2168.9 469.541 2172.56 466.809 Q2176.22 464.031 2176.22 458.846 Q2176.22 453.522 2172.42 450.698 Q2168.67 447.828 2161.63 447.828 Q2157.79 447.828 2153.39 448.661 Q2149 449.494 2143.72 451.254 L2143.72 442.92 Q2149.04 441.439 2153.67 440.698 Q2158.35 439.957 2162.47 439.957 Q2173.12 439.957 2179.32 444.819 Q2185.52 449.633 2185.52 457.874 Q2185.52 463.615 2182.24 467.596 Q2178.95 471.531 2172.88 473.059 Z" fill="#000000" fill-rule="nonzero" fill-opacity="1" /><polyline clip-path="url(#clip980)" style="stroke:#c271d2; stroke-linecap:round; stroke-linejoin:round; stroke-width:8; stroke-opacity:1; fill:none" points="1720.85,579.447 1847.75,579.447 "/>
<path clip-path="url(#clip980)" d="M1924.64 550.211 L1924.64 560.073 Q1919.92 555.674 1914.55 553.498 Q1909.23 551.323 1903.21 551.323 Q1891.36 551.323 1885.06 558.591 Q1878.77 565.813 1878.77 579.517 Q1878.77 593.174 1885.06 600.443 Q1891.36 607.665 1903.21 607.665 Q1909.23 607.665 1914.55 605.489 Q1919.92 603.313 1924.64 598.915 L1924.64 608.683 Q1919.74 612.017 1914.23 613.683 Q1908.77 615.35 1902.65 615.35 Q1886.96 615.35 1877.93 605.767 Q1868.9 596.137 1868.9 579.517 Q1868.9 562.85 1877.93 553.267 Q1886.96 543.637 1902.65 543.637 Q1908.86 543.637 1914.32 545.304 Q1919.83 546.924 1924.64 550.211 Z" fill="#000000" fill-rule="nonzero" fill-opacity="1" /><path clip-path="url(#clip980)" d="M1981.82 582.711 L1981.82 614.007 L1973.3 614.007 L1973.3 582.989 Q1973.3 575.628 1970.43 571.971 Q1967.56 568.313 1961.82 568.313 Q1954.92 568.313 1950.94 572.711 Q1946.96 577.109 1946.96 584.702 L1946.96 614.007 L1938.39 614.007 L1938.39 541.971 L1946.96 541.971 L1946.96 570.211 Q1950.01 565.535 1954.14 563.221 Q1958.3 560.906 1963.72 560.906 Q1972.65 560.906 1977.24 566.461 Q1981.82 571.971 1981.82 582.711 Z" fill="#000000" fill-rule="nonzero" fill-opacity="1" /><path clip-path="url(#clip980)" d="M2022.38 587.943 Q2012.05 587.943 2008.07 590.304 Q2004.09 592.665 2004.09 598.359 Q2004.09 602.896 2007.05 605.582 Q2010.06 608.22 2015.2 608.22 Q2022.28 608.22 2026.54 603.22 Q2030.85 598.174 2030.85 589.841 L2030.85 587.943 L2022.38 587.943 M2039.37 584.424 L2039.37 614.007 L2030.85 614.007 L2030.85 606.137 Q2027.93 610.859 2023.58 613.128 Q2019.23 615.35 2012.93 615.35 Q2004.97 615.35 2000.25 610.906 Q1995.57 606.415 1995.57 598.915 Q1995.57 590.165 2001.4 585.721 Q2007.28 581.276 2018.9 581.276 L2030.85 581.276 L2030.85 580.443 Q2030.85 574.563 2026.96 571.369 Q2023.12 568.128 2016.13 568.128 Q2011.68 568.128 2007.47 569.193 Q2003.26 570.258 1999.37 572.387 L1999.37 564.517 Q2004.04 562.711 2008.44 561.832 Q2012.84 560.906 2017.01 560.906 Q2028.26 560.906 2033.81 566.739 Q2039.37 572.572 2039.37 584.424 Z" fill="#000000" fill-rule="nonzero" fill-opacity="1" /><path clip-path="url(#clip980)" d="M2056.91 562.156 L2065.43 562.156 L2065.43 614.007 L2056.91 614.007 L2056.91 562.156 M2056.91 541.971 L2065.43 541.971 L2065.43 552.758 L2056.91 552.758 L2056.91 541.971 Z" fill="#000000" fill-rule="nonzero" fill-opacity="1" /><path clip-path="url(#clip980)" d="M2126.36 582.711 L2126.36 614.007 L2117.84 614.007 L2117.84 582.989 Q2117.84 575.628 2114.97 571.971 Q2112.1 568.313 2106.36 568.313 Q2099.46 568.313 2095.48 572.711 Q2091.5 577.109 2091.5 584.702 L2091.5 614.007 L2082.93 614.007 L2082.93 562.156 L2091.5 562.156 L2091.5 570.211 Q2094.55 565.535 2098.67 563.221 Q2102.84 560.906 2108.25 560.906 Q2117.19 560.906 2121.77 566.461 Q2126.36 571.971 2126.36 582.711 Z" fill="#000000" fill-rule="nonzero" fill-opacity="1" /><path clip-path="url(#clip980)" d="M2170.25 553.036 L2146.63 589.933 L2170.25 589.933 L2170.25 553.036 M2167.79 544.887 L2179.55 544.887 L2179.55 589.933 L2189.41 589.933 L2189.41 597.711 L2179.55 597.711 L2179.55 614.007 L2170.25 614.007 L2170.25 597.711 L2139.04 597.711 L2139.04 588.683 L2167.79 544.887 Z" fill="#000000" fill-rule="nonzero" fill-opacity="1" /><path clip-path="url(#clip980)" d="M618.023 33.2183 L602.166 76.2158 L633.937 76.2158 L618.023 33.2183 M611.426 21.7022 L624.678 21.7022 L657.606 108.102 L645.453 108.102 L637.583 85.9379 L598.636 85.9379 L590.766 108.102 L578.44 108.102 L611.426 21.7022 Z" fill="#000000" fill-rule="nonzero" fill-opacity="1" /><path clip-path="url(#clip980)" d="M668.659 82.5236 L668.659 43.2877 L679.307 43.2877 L679.307 82.1185 Q679.307 91.3199 682.895 95.9495 Q686.483 100.521 693.659 100.521 Q702.282 100.521 707.258 95.0235 Q712.293 89.5259 712.293 80.0352 L712.293 43.2877 L722.941 43.2877 L722.941 108.102 L712.293 108.102 L712.293 98.1485 Q708.416 104.051 703.265 106.945 Q698.173 109.78 691.402 109.78 Q680.233 109.78 674.446 102.836 Q668.659 95.8916 668.659 82.5236 M695.453 41.7252 L695.453 41.7252 Z" fill="#000000" fill-rule="nonzero" fill-opacity="1" /><path clip-path="url(#clip980)" d="M755.406 24.885 L755.406 43.2877 L777.339 43.2877 L777.339 51.5631 L755.406 51.5631 L755.406 86.7481 Q755.406 94.6763 757.547 96.9333 Q759.747 99.1902 766.402 99.1902 L777.339 99.1902 L777.339 108.102 L766.402 108.102 Q754.075 108.102 749.388 103.53 Q744.7 98.9008 744.7 86.7481 L744.7 51.5631 L736.888 51.5631 L736.888 43.2877 L744.7 43.2877 L744.7 24.885 L755.406 24.885 Z" fill="#000000" fill-rule="nonzero" fill-opacity="1" /><path clip-path="url(#clip980)" d="M816.459 50.753 Q807.894 50.753 802.918 57.4659 Q797.941 64.1209 797.941 75.7528 Q797.941 87.3847 802.86 94.0976 Q807.837 100.753 816.459 100.753 Q824.966 100.753 829.943 94.0398 Q834.92 87.3268 834.92 75.7528 Q834.92 64.2367 829.943 57.5237 Q824.966 50.753 816.459 50.753 M816.459 41.7252 Q830.348 41.7252 838.276 50.753 Q846.204 59.7807 846.204 75.7528 Q846.204 91.6671 838.276 100.753 Q830.348 109.78 816.459 109.78 Q802.513 109.78 794.584 100.753 Q786.714 91.6671 786.714 75.7528 Q786.714 59.7807 794.584 50.753 Q802.513 41.7252 816.459 41.7252 Z" fill="#000000" fill-rule="nonzero" fill-opacity="1" /><path clip-path="url(#clip980)" d="M910.498 45.7761 L910.498 55.7298 Q905.984 53.2414 901.412 52.0261 Q896.899 50.753 892.269 50.753 Q881.91 50.753 876.181 57.3501 Q870.452 63.8895 870.452 75.7528 Q870.452 87.6162 876.181 94.2134 Q881.91 100.753 892.269 100.753 Q896.899 100.753 901.412 99.5374 Q905.984 98.2643 910.498 95.7759 L910.498 105.614 Q906.042 107.697 901.239 108.739 Q896.493 109.78 891.112 109.78 Q876.47 109.78 867.848 100.579 Q859.225 91.3777 859.225 75.7528 Q859.225 59.8964 867.906 50.8108 Q876.644 41.7252 891.806 41.7252 Q896.725 41.7252 901.412 42.7669 Q906.1 43.7507 910.498 45.7761 Z" fill="#000000" fill-rule="nonzero" fill-opacity="1" /><path clip-path="url(#clip980)" d="M954.132 50.753 Q945.567 50.753 940.59 57.4659 Q935.614 64.1209 935.614 75.7528 Q935.614 87.3847 940.533 94.0976 Q945.509 100.753 954.132 100.753 Q962.639 100.753 967.616 94.0398 Q972.593 87.3268 972.593 75.7528 Q972.593 64.2367 967.616 57.5237 Q962.639 50.753 954.132 50.753 M954.132 41.7252 Q968.021 41.7252 975.949 50.753 Q983.877 59.7807 983.877 75.7528 Q983.877 91.6671 975.949 100.753 Q968.021 109.78 954.132 109.78 Q940.185 109.78 932.257 100.753 Q924.387 91.6671 924.387 75.7528 Q924.387 59.7807 932.257 50.753 Q940.185 41.7252 954.132 41.7252 Z" fill="#000000" fill-rule="nonzero" fill-opacity="1" /><path clip-path="url(#clip980)" d="M1039.09 53.2414 Q1037.29 52.1997 1035.15 51.7367 Q1033.07 51.2159 1030.52 51.2159 Q1021.49 51.2159 1016.63 57.1187 Q1011.83 62.9635 1011.83 73.9588 L1011.83 108.102 L1001.12 108.102 L1001.12 43.2877 L1011.83 43.2877 L1011.83 53.3571 Q1015.18 47.4544 1020.57 44.6187 Q1025.95 41.7252 1033.65 41.7252 Q1034.75 41.7252 1036.08 41.8988 Q1037.41 42.0146 1039.03 42.3039 L1039.09 53.2414 Z" fill="#000000" fill-rule="nonzero" fill-opacity="1" /><path clip-path="url(#clip980)" d="M1085.73 53.2414 Q1083.93 52.1997 1081.79 51.7367 Q1079.71 51.2159 1077.16 51.2159 Q1068.14 51.2159 1063.28 57.1187 Q1058.47 62.9635 1058.47 73.9588 L1058.47 108.102 L1047.77 108.102 L1047.77 43.2877 L1058.47 43.2877 L1058.47 53.3571 Q1061.83 47.4544 1067.21 44.6187 Q1072.59 41.7252 1080.29 41.7252 Q1081.39 41.7252 1082.72 41.8988 Q1084.05 42.0146 1085.67 42.3039 L1085.73 53.2414 Z" fill="#000000" fill-rule="nonzero" fill-opacity="1" /><path clip-path="url(#clip980)" d="M1149.73 73.0329 L1149.73 78.2412 L1100.77 78.2412 Q1101.47 89.2365 1107.37 95.0235 Q1113.33 100.753 1123.92 100.753 Q1130.06 100.753 1135.79 99.2481 Q1141.57 97.7434 1147.24 94.7342 L1147.24 104.804 Q1141.52 107.234 1135.5 108.507 Q1129.48 109.78 1123.29 109.78 Q1107.78 109.78 1098.69 100.753 Q1089.66 91.725 1089.66 76.3315 Q1089.66 60.4173 1098.23 51.1002 Q1106.85 41.7252 1121.43 41.7252 Q1134.51 41.7252 1142.09 50.1742 Q1149.73 58.5654 1149.73 73.0329 M1139.08 69.9079 Q1138.97 61.1696 1134.17 55.9613 Q1129.42 50.753 1121.55 50.753 Q1112.64 50.753 1107.26 55.7876 Q1101.93 60.8223 1101.12 69.9658 L1139.08 69.9079 Z" fill="#000000" fill-rule="nonzero" fill-opacity="1" /><path clip-path="url(#clip980)" d="M1167.21 18.0564 L1177.86 18.0564 L1177.86 108.102 L1167.21 108.102 L1167.21 18.0564 Z" fill="#000000" fill-rule="nonzero" fill-opacity="1" /><path clip-path="url(#clip980)" d="M1229.59 75.5213 Q1216.69 75.5213 1211.71 78.4727 Q1206.73 81.4241 1206.73 88.5421 Q1206.73 94.2134 1210.44 97.5698 Q1214.2 100.868 1220.62 100.868 Q1229.48 100.868 1234.8 94.6185 Q1240.18 88.3106 1240.18 77.894 L1240.18 75.5213 L1229.59 75.5213 M1250.83 71.1232 L1250.83 108.102 L1240.18 108.102 L1240.18 98.2643 Q1236.54 104.167 1231.1 107.003 Q1225.66 109.78 1217.79 109.78 Q1207.83 109.78 1201.93 104.225 Q1196.09 98.6115 1196.09 89.2365 Q1196.09 78.2991 1203.38 72.7436 Q1210.73 67.188 1225.25 67.188 L1240.18 67.188 L1240.18 66.1464 Q1240.18 58.7969 1235.32 54.8039 Q1230.52 50.753 1221.78 50.753 Q1216.23 50.753 1210.96 52.084 Q1205.69 53.415 1200.83 56.077 L1200.83 46.2391 Q1206.68 43.9822 1212.17 42.8826 Q1217.67 41.7252 1222.88 41.7252 Q1236.94 41.7252 1243.89 49.0168 Q1250.83 56.3085 1250.83 71.1232 Z" fill="#000000" fill-rule="nonzero" fill-opacity="1" /><path clip-path="url(#clip980)" d="M1283.3 24.885 L1283.3 43.2877 L1305.23 43.2877 L1305.23 51.5631 L1283.3 51.5631 L1283.3 86.7481 Q1283.3 94.6763 1285.44 96.9333 Q1287.64 99.1902 1294.29 99.1902 L1305.23 99.1902 L1305.23 108.102 L1294.29 108.102 Q1281.97 108.102 1277.28 103.53 Q1272.59 98.9008 1272.59 86.7481 L1272.59 51.5631 L1264.78 51.5631 L1264.78 43.2877 L1272.59 43.2877 L1272.59 24.885 L1283.3 24.885 Z" fill="#000000" fill-rule="nonzero" fill-opacity="1" /><path clip-path="url(#clip980)" d="M1319.23 43.2877 L1329.88 43.2877 L1329.88 108.102 L1319.23 108.102 L1319.23 43.2877 M1319.23 18.0564 L1329.88 18.0564 L1329.88 31.5401 L1319.23 31.5401 L1319.23 18.0564 Z" fill="#000000" fill-rule="nonzero" fill-opacity="1" /><path clip-path="url(#clip980)" d="M1377.28 50.753 Q1368.71 50.753 1363.74 57.4659 Q1358.76 64.1209 1358.76 75.7528 Q1358.76 87.3847 1363.68 94.0976 Q1368.66 100.753 1377.28 100.753 Q1385.78 100.753 1390.76 94.0398 Q1395.74 87.3268 1395.74 75.7528 Q1395.74 64.2367 1390.76 57.5237 Q1385.78 50.753 1377.28 50.753 M1377.28 41.7252 Q1391.17 41.7252 1399.09 50.753 Q1407.02 59.7807 1407.02 75.7528 Q1407.02 91.6671 1399.09 100.753 Q1391.17 109.78 1377.28 109.78 Q1363.33 109.78 1355.4 100.753 Q1347.53 91.6671 1347.53 75.7528 Q1347.53 59.7807 1355.4 50.753 Q1363.33 41.7252 1377.28 41.7252 Z" fill="#000000" fill-rule="nonzero" fill-opacity="1" /><path clip-path="url(#clip980)" d="M1478.55 68.982 L1478.55 108.102 L1467.9 108.102 L1467.9 69.3292 Q1467.9 60.1279 1464.31 55.5562 Q1460.73 50.9844 1453.55 50.9844 Q1444.93 50.9844 1439.95 56.4821 Q1434.97 61.9797 1434.97 71.4704 L1434.97 108.102 L1424.27 108.102 L1424.27 43.2877 L1434.97 43.2877 L1434.97 53.3571 Q1438.79 47.5122 1443.94 44.6187 Q1449.15 41.7252 1455.92 41.7252 Q1467.09 41.7252 1472.82 48.6696 Q1478.55 55.5562 1478.55 68.982 Z" fill="#000000" fill-rule="nonzero" fill-opacity="1" /><path clip-path="url(#clip980)" d="M1582.92 74.6666 Q1582.92 83.3329 1578.47 91.4722 Q1574.08 99.6115 1567.17 104.53 Q1560.31 109.449 1553.4 109.449 Q1545.62 109.449 1541.58 101.368 Q1534.26 130.705 1533.85 131.466 Q1532.15 133.984 1529.69 133.984 Q1528.17 133.984 1527.23 133.047 Q1526.29 132.169 1526.29 130.763 Q1526.35 130.295 1526.7 128.831 L1538.41 81.6934 Q1541.11 70.7434 1549.25 62.9554 Q1557.45 55.1089 1566.23 55.1089 Q1573.2 55.1089 1578.06 60.3204 Q1582.92 65.5319 1582.92 74.6666 M1574.31 69.5137 Q1574.31 63.6581 1571.97 60.7303 Q1569.62 57.7439 1565.99 57.7439 Q1562.66 57.7439 1558.62 60.4375 Q1554.63 63.1311 1551.12 69.1038 Q1549.25 72.5586 1547.9 76.8332 Q1546.55 81.1078 1543.92 91.6479 Q1542.98 95.864 1542.98 96.0982 Q1542.98 96.5666 1543.22 97.6206 Q1543.51 98.6746 1544.21 100.314 Q1544.97 101.895 1546.03 103.301 Q1547.08 104.706 1549.01 105.76 Q1550.95 106.755 1553.29 106.755 Q1556.92 106.755 1560.78 103.828 Q1564.71 100.841 1567.58 95.3955 Q1569.98 91.0038 1572.14 82.7474 Q1574.31 74.4324 1574.31 69.5137 Z" fill="#000000" fill-rule="nonzero" fill-opacity="1" /><path clip-path="url(#clip980)" d="M1620.95 129.723 Q1620.95 130.871 1620.42 131.158 Q1619.89 131.404 1618.41 131.404 L1610.54 131.404 L1604.31 156.161 Q1603.82 158.333 1603.82 160.178 Q1603.82 162.227 1604.44 163.129 Q1605.09 164.031 1606.44 164.031 Q1609.11 164.031 1611.98 161.613 Q1614.89 159.194 1617.35 153.292 Q1617.67 152.513 1617.84 152.349 Q1618.04 152.144 1618.58 152.144 Q1619.6 152.144 1619.6 152.964 Q1619.6 153.251 1619.03 154.562 Q1618.49 155.874 1617.31 157.801 Q1616.16 159.727 1614.64 161.531 Q1613.17 163.334 1610.91 164.646 Q1608.66 165.916 1606.24 165.916 Q1602.84 165.916 1600.66 163.744 Q1598.53 161.572 1598.53 158.17 Q1598.53 157.063 1599.39 153.538 Q1600.25 149.972 1604.93 131.404 L1597.51 131.404 Q1596.48 131.404 1596.07 131.363 Q1595.7 131.322 1595.42 131.117 Q1595.17 130.871 1595.17 130.379 Q1595.17 129.6 1595.5 129.272 Q1595.83 128.903 1596.24 128.862 Q1596.69 128.78 1597.71 128.78 L1605.58 128.78 L1608.86 115.459 Q1609.19 114.147 1610.01 113.409 Q1610.87 112.63 1611.36 112.548 Q1611.85 112.425 1612.22 112.425 Q1613.33 112.425 1613.99 113.04 Q1614.64 113.614 1614.64 114.68 Q1614.64 115.254 1611.2 128.78 L1618.58 128.78 Q1619.52 128.78 1619.89 128.821 Q1620.3 128.862 1620.63 129.067 Q1620.95 129.272 1620.95 129.723 Z" fill="#000000" fill-rule="nonzero" fill-opacity="1" /><path clip-path="url(#clip980)" d="M1715.15 18.0564 L1715.15 26.9105 L1704.97 26.9105 Q1699.24 26.9105 1696.98 29.2253 Q1694.78 31.5401 1694.78 37.5586 L1694.78 43.2877 L1712.32 43.2877 L1712.32 51.5631 L1694.78 51.5631 L1694.78 108.102 L1684.08 108.102 L1684.08 51.5631 L1673.89 51.5631 L1673.89 43.2877 L1684.08 43.2877 L1684.08 38.7738 Q1684.08 27.9521 1689.11 23.0332 Q1694.15 18.0564 1705.08 18.0564 L1715.15 18.0564 Z" fill="#000000" fill-rule="nonzero" fill-opacity="1" /><path clip-path="url(#clip980)" d="M1749.18 50.753 Q1740.62 50.753 1735.64 57.4659 Q1730.66 64.1209 1730.66 75.7528 Q1730.66 87.3847 1735.58 94.0976 Q1740.56 100.753 1749.18 100.753 Q1757.69 100.753 1762.67 94.0398 Q1767.64 87.3268 1767.64 75.7528 Q1767.64 64.2367 1762.67 57.5237 Q1757.69 50.753 1749.18 50.753 M1749.18 41.7252 Q1763.07 41.7252 1771 50.753 Q1778.93 59.7807 1778.93 75.7528 Q1778.93 91.6671 1771 100.753 Q1763.07 109.78 1749.18 109.78 Q1735.24 109.78 1727.31 100.753 Q1719.44 91.6671 1719.44 75.7528 Q1719.44 59.7807 1727.31 50.753 Q1735.24 41.7252 1749.18 41.7252 Z" fill="#000000" fill-rule="nonzero" fill-opacity="1" /><path clip-path="url(#clip980)" d="M1834.14 53.2414 Q1832.34 52.1997 1830.2 51.7367 Q1828.12 51.2159 1825.57 51.2159 Q1816.54 51.2159 1811.68 57.1187 Q1806.88 62.9635 1806.88 73.9588 L1806.88 108.102 L1796.17 108.102 L1796.17 43.2877 L1806.88 43.2877 L1806.88 53.3571 Q1810.23 47.4544 1815.62 44.6187 Q1821 41.7252 1828.7 41.7252 Q1829.79 41.7252 1831.13 41.8988 Q1832.46 42.0146 1834.08 42.3039 L1834.14 53.2414 Z" fill="#000000" fill-rule="nonzero" fill-opacity="1" /><path clip-path="url(#clip980)" d="M1934.76 93.1514 Q1934.76 93.6199 1932.47 97.7188 Q1928.67 105.273 1923.81 116.808 Q1918.95 128.344 1916.19 136.893 Q1915.61 138.942 1915.2 141.577 Q1914.14 149.658 1910.75 162.189 Q1909.58 166.112 1908.82 167.752 Q1908.05 169.391 1906.94 169.391 Q1905.36 169.391 1905.36 167.225 Q1905.36 165.058 1907.35 156.978 Q1909.4 148.897 1911.63 141.46 Q1913.03 137.361 1913.03 129.69 Q1913.03 127.231 1912.91 125.006 Q1912.8 122.781 1912.33 119.56 Q1911.86 116.34 1911.1 113.705 Q1910.34 111.07 1908.87 108.317 Q1907.41 105.507 1905.42 103.633 Q1903.43 101.701 1900.38 100.471 Q1897.4 99.2413 1893.65 99.2413 Q1892.71 99.2413 1891.54 99.3584 Q1890.43 99.4169 1887.74 100.178 Q1885.1 100.939 1882.88 102.286 Q1880.65 103.574 1878.25 106.444 Q1875.85 109.313 1874.56 113.178 L1874.09 113.763 Q1873.33 113.763 1872.92 113.763 Q1872.57 113.705 1872.16 113.412 Q1871.81 113.119 1871.81 112.592 Q1871.81 111.362 1872.75 108.903 Q1873.74 106.444 1875.73 103.282 Q1877.78 100.12 1880.42 97.3089 Q1883.11 94.4982 1887.03 92.5659 Q1890.96 90.6335 1895.17 90.6335 Q1906.01 90.6335 1911.16 103.809 Q1915.67 114.993 1916.08 128.285 Q1925.45 104.687 1931.89 92.8001 Q1932.24 91.9217 1933.29 91.9217 Q1934.76 91.9803 1934.76 93.1514 Z" fill="#000000" fill-rule="nonzero" fill-opacity="1" /><path clip-path="url(#clip980)" d="M2002.37 85.5802 Q2002.86 86.0721 2002.86 86.7689 Q2002.86 87.4657 2002.37 87.9576 Q2001.88 88.4494 2001.18 88.4494 L1948.63 88.4494 Q1947.94 88.4494 1947.44 87.9576 Q1946.95 87.4657 1946.95 86.7689 Q1946.95 86.0721 1947.44 85.5802 Q1947.94 85.0883 1948.63 85.0883 L2001.18 85.0883 Q2001.88 85.0883 2002.37 85.5802 Z" fill="#000000" fill-rule="nonzero" fill-opacity="1" /><path clip-path="url(#clip980)" d="M2011.63 59.8389 L2011.63 57.2156 Q2021.71 57.2156 2026.92 51.846 Q2028.35 51.846 2028.6 52.1739 Q2028.84 52.5018 2028.84 54.0184 L2028.84 101.115 Q2028.84 103.615 2030.07 104.394 Q2031.3 105.173 2036.67 105.173 L2039.34 105.173 L2039.34 107.755 Q2036.38 107.509 2025.73 107.509 Q2015.07 107.509 2012.16 107.755 L2012.16 105.173 L2014.82 105.173 Q2020.11 105.173 2021.38 104.435 Q2022.65 103.656 2022.65 101.115 L2022.65 57.6255 Q2018.27 59.8389 2011.63 59.8389 Z" fill="#000000" fill-rule="nonzero" fill-opacity="1" /></svg>
